<?xml version="1.0" encoding="UTF-8" standalone="no"?>
<!DOCTYPE svg PUBLIC "-//W3C//DTD SVG 1.1//EN"
 "http://www.w3.org/Graphics/SVG/1.1/DTD/svg11.dtd">
<!-- Generated by graphviz version 2.43.0 (0)
 -->
<!-- Title: G Pages: 1 -->
<svg width="1731pt" height="138pt"
 viewBox="0.00 0.00 1731.00 138.37" xmlns="http://www.w3.org/2000/svg" xmlns:xlink="http://www.w3.org/1999/xlink">
<g id="graph0" class="graph" transform="scale(1 1) rotate(0) translate(4 134.37)">
<title>G</title>
<polygon fill="white" stroke="transparent" points="-4,4 -4,-134.37 1727,-134.37 1727,4 -4,4"/>
<!-- node_start -->
<g id="node1" class="node">
<title>node_start</title>
<polygon fill="none" stroke="black" points="0,-61.87 0,-129.87 223,-129.87 223,-61.87 0,-61.87"/>
<text text-anchor="middle" x="111.5" y="-116.27" font-family="Times,serif" font-size="12.00">phys_index:</text>
<text text-anchor="middle" x="111.5" y="-103.27" font-family="Times,serif" font-size="12.00">0</text>
<polyline fill="none" stroke="black" points="0,-95.87 223,-95.87 "/>
<text text-anchor="middle" x="38.5" y="-82.27" font-family="Times,serif" font-size="12.00">log_index:</text>
<text text-anchor="middle" x="38.5" y="-69.27" font-family="Times,serif" font-size="12.00">0</text>
<polyline fill="none" stroke="black" points="77,-61.87 77,-95.87 "/>
<text text-anchor="middle" x="103.5" y="-82.27" font-family="Times,serif" font-size="12.00">value:</text>
<text text-anchor="middle" x="103.5" y="-69.27" font-family="Times,serif" font-size="12.00">0</text>
<polyline fill="none" stroke="black" points="130,-61.87 130,-95.87 "/>
<text text-anchor="middle" x="153.5" y="-82.27" font-family="Times,serif" font-size="12.00">prev:</text>
<text text-anchor="middle" x="153.5" y="-69.27" font-family="Times,serif" font-size="12.00">0</text>
<polyline fill="none" stroke="black" points="177,-61.87 177,-95.87 "/>
<text text-anchor="middle" x="200" y="-82.27" font-family="Times,serif" font-size="12.00">next:</text>
<text text-anchor="middle" x="200" y="-69.27" font-family="Times,serif" font-size="12.00">0</text>
</g>
<!-- node10 -->
<g id="node2" class="node">
<title>node10</title>
<polygon fill="none" stroke="black" points="259,-61.87 259,-129.87 503,-129.87 503,-61.87 259,-61.87"/>
<text text-anchor="middle" x="381" y="-116.27" font-family="Times,serif" font-size="12.00">phys_index:</text>
<text text-anchor="middle" x="381" y="-103.27" font-family="Times,serif" font-size="12.00">10</text>
<polyline fill="none" stroke="black" points="259,-95.87 503,-95.87 "/>
<text text-anchor="middle" x="297.5" y="-82.27" font-family="Times,serif" font-size="12.00">log_index:</text>
<text text-anchor="middle" x="297.5" y="-69.27" font-family="Times,serif" font-size="12.00">1</text>
<polyline fill="none" stroke="black" points="336,-61.87 336,-95.87 "/>
<text text-anchor="middle" x="373" y="-82.27" font-family="Times,serif" font-size="12.00">value:</text>
<text text-anchor="middle" x="373" y="-69.27" font-family="Times,serif" font-size="12.00">just new6</text>
<polyline fill="none" stroke="black" points="410,-61.87 410,-95.87 "/>
<text text-anchor="middle" x="433.5" y="-82.27" font-family="Times,serif" font-size="12.00">prev:</text>
<text text-anchor="middle" x="433.5" y="-69.27" font-family="Times,serif" font-size="12.00">0</text>
<polyline fill="none" stroke="black" points="457,-61.87 457,-95.87 "/>
<text text-anchor="middle" x="480" y="-82.27" font-family="Times,serif" font-size="12.00">next:</text>
<text text-anchor="middle" x="480" y="-69.27" font-family="Times,serif" font-size="12.00">7</text>
</g>
<!-- node_start&#45;&gt;node10 -->
<g id="edge1" class="edge">
<title>node_start:next&#45;&gt;node10</title>
<path fill="none" stroke="black" d="M223,-78.87C231.37,-78.87 239.99,-79.11 248.66,-79.54"/>
<polygon fill="black" stroke="black" points="248.67,-83.04 258.86,-80.12 249.07,-76.05 248.67,-83.04"/>
</g>
<!-- node10&#45;&gt;node_start -->
<g id="edge2" class="edge">
<title>node10:prev&#45;&gt;node_start</title>
<path fill="none" stroke="black" d="M434,-60.87C434,36.94 285.13,-14.57 190,-57.47"/>
<polygon fill="black" stroke="black" points="188.33,-54.39 180.68,-61.72 191.23,-60.76 188.33,-54.39"/>
</g>
<!-- node7 -->
<g id="node3" class="node">
<title>node7</title>
<polygon fill="none" stroke="black" points="539,-61.87 539,-129.87 783,-129.87 783,-61.87 539,-61.87"/>
<text text-anchor="middle" x="661" y="-116.27" font-family="Times,serif" font-size="12.00">phys_index:</text>
<text text-anchor="middle" x="661" y="-103.27" font-family="Times,serif" font-size="12.00">7</text>
<polyline fill="none" stroke="black" points="539,-95.87 783,-95.87 "/>
<text text-anchor="middle" x="577.5" y="-82.27" font-family="Times,serif" font-size="12.00">log_index:</text>
<text text-anchor="middle" x="577.5" y="-69.27" font-family="Times,serif" font-size="12.00">2</text>
<polyline fill="none" stroke="black" points="616,-61.87 616,-95.87 "/>
<text text-anchor="middle" x="653" y="-82.27" font-family="Times,serif" font-size="12.00">value:</text>
<text text-anchor="middle" x="653" y="-69.27" font-family="Times,serif" font-size="12.00">just new3</text>
<polyline fill="none" stroke="black" points="690,-61.87 690,-95.87 "/>
<text text-anchor="middle" x="713.5" y="-82.27" font-family="Times,serif" font-size="12.00">prev:</text>
<text text-anchor="middle" x="713.5" y="-69.27" font-family="Times,serif" font-size="12.00">10</text>
<polyline fill="none" stroke="black" points="737,-61.87 737,-95.87 "/>
<text text-anchor="middle" x="760" y="-82.27" font-family="Times,serif" font-size="12.00">next:</text>
<text text-anchor="middle" x="760" y="-69.27" font-family="Times,serif" font-size="12.00">1</text>
</g>
<!-- node10&#45;&gt;node7 -->
<g id="edge3" class="edge">
<title>node10:next&#45;&gt;node7</title>
<path fill="none" stroke="black" d="M503,-78.87C511.37,-78.87 519.99,-79.11 528.66,-79.54"/>
<polygon fill="black" stroke="black" points="528.67,-83.04 538.86,-80.12 529.07,-76.05 528.67,-83.04"/>
</g>
<!-- node7&#45;&gt;node10 -->
<g id="edge4" class="edge">
<title>node7:prev&#45;&gt;node10</title>
<path fill="none" stroke="black" d="M714,-60.87C714,40.9 557.82,-13.4 459.7,-57.55"/>
<polygon fill="black" stroke="black" points="458.04,-54.46 450.39,-61.79 460.94,-60.83 458.04,-54.46"/>
</g>
<!-- node1 -->
<g id="node4" class="node">
<title>node1</title>
<polygon fill="none" stroke="black" points="819,-61.87 819,-129.87 1060,-129.87 1060,-61.87 819,-61.87"/>
<text text-anchor="middle" x="939.5" y="-116.27" font-family="Times,serif" font-size="12.00">phys_index:</text>
<text text-anchor="middle" x="939.5" y="-103.27" font-family="Times,serif" font-size="12.00">1</text>
<polyline fill="none" stroke="black" points="819,-95.87 1060,-95.87 "/>
<text text-anchor="middle" x="857.5" y="-82.27" font-family="Times,serif" font-size="12.00">log_index:</text>
<text text-anchor="middle" x="857.5" y="-69.27" font-family="Times,serif" font-size="12.00">3</text>
<polyline fill="none" stroke="black" points="896,-61.87 896,-95.87 "/>
<text text-anchor="middle" x="931.5" y="-82.27" font-family="Times,serif" font-size="12.00">value:</text>
<text text-anchor="middle" x="931.5" y="-69.27" font-family="Times,serif" font-size="12.00">new zero</text>
<polyline fill="none" stroke="black" points="967,-61.87 967,-95.87 "/>
<text text-anchor="middle" x="990.5" y="-82.27" font-family="Times,serif" font-size="12.00">prev:</text>
<text text-anchor="middle" x="990.5" y="-69.27" font-family="Times,serif" font-size="12.00">7</text>
<polyline fill="none" stroke="black" points="1014,-61.87 1014,-95.87 "/>
<text text-anchor="middle" x="1037" y="-82.27" font-family="Times,serif" font-size="12.00">next:</text>
<text text-anchor="middle" x="1037" y="-69.27" font-family="Times,serif" font-size="12.00">6</text>
</g>
<!-- node7&#45;&gt;node1 -->
<g id="edge5" class="edge">
<title>node7:next&#45;&gt;node1</title>
<path fill="none" stroke="black" d="M783,-78.87C791.39,-78.87 800.03,-79.12 808.72,-79.55"/>
<polygon fill="black" stroke="black" points="808.75,-83.06 818.94,-80.15 809.16,-76.07 808.75,-83.06"/>
</g>
<!-- node1&#45;&gt;node7 -->
<g id="edge6" class="edge">
<title>node1:prev&#45;&gt;node7</title>
<path fill="none" stroke="black" d="M990.5,-60.87C990.5,39.56 836.81,-13.77 739.68,-57.51"/>
<polygon fill="black" stroke="black" points="738.11,-54.37 730.46,-61.7 741.02,-60.74 738.11,-54.37"/>
</g>
<!-- node6 -->
<g id="node5" class="node">
<title>node6</title>
<polygon fill="none" stroke="black" points="1096,-61.87 1096,-129.87 1340,-129.87 1340,-61.87 1096,-61.87"/>
<text text-anchor="middle" x="1218" y="-116.27" font-family="Times,serif" font-size="12.00">phys_index:</text>
<text text-anchor="middle" x="1218" y="-103.27" font-family="Times,serif" font-size="12.00">6</text>
<polyline fill="none" stroke="black" points="1096,-95.87 1340,-95.87 "/>
<text text-anchor="middle" x="1134.5" y="-82.27" font-family="Times,serif" font-size="12.00">log_index:</text>
<text text-anchor="middle" x="1134.5" y="-69.27" font-family="Times,serif" font-size="12.00">4</text>
<polyline fill="none" stroke="black" points="1173,-61.87 1173,-95.87 "/>
<text text-anchor="middle" x="1210" y="-82.27" font-family="Times,serif" font-size="12.00">value:</text>
<text text-anchor="middle" x="1210" y="-69.27" font-family="Times,serif" font-size="12.00">new first!</text>
<polyline fill="none" stroke="black" points="1247,-61.87 1247,-95.87 "/>
<text text-anchor="middle" x="1270.5" y="-82.27" font-family="Times,serif" font-size="12.00">prev:</text>
<text text-anchor="middle" x="1270.5" y="-69.27" font-family="Times,serif" font-size="12.00">1</text>
<polyline fill="none" stroke="black" points="1294,-61.87 1294,-95.87 "/>
<text text-anchor="middle" x="1317" y="-82.27" font-family="Times,serif" font-size="12.00">next:</text>
<text text-anchor="middle" x="1317" y="-69.27" font-family="Times,serif" font-size="12.00">4</text>
</g>
<!-- node1&#45;&gt;node6 -->
<g id="edge7" class="edge">
<title>node1:next&#45;&gt;node6</title>
<path fill="none" stroke="black" d="M1060,-78.87C1068.37,-78.87 1076.99,-79.11 1085.66,-79.54"/>
<polygon fill="black" stroke="black" points="1085.67,-83.04 1095.86,-80.12 1086.07,-76.05 1085.67,-83.04"/>
</g>
<!-- node6&#45;&gt;node1 -->
<g id="edge8" class="edge">
<title>node6:prev&#45;&gt;node1</title>
<path fill="none" stroke="black" d="M1271,-60.87C1271,40.3 1115.95,-13.54 1018.25,-57.51"/>
<polygon fill="black" stroke="black" points="1016.63,-54.4 1008.98,-61.72 1019.53,-60.77 1016.63,-54.4"/>
</g>
<!-- node4 -->
<g id="node6" class="node">
<title>node4</title>
<polygon fill="none" stroke="black" points="1376,-61.87 1376,-129.87 1633,-129.87 1633,-61.87 1376,-61.87"/>
<text text-anchor="middle" x="1504.5" y="-116.27" font-family="Times,serif" font-size="12.00">phys_index:</text>
<text text-anchor="middle" x="1504.5" y="-103.27" font-family="Times,serif" font-size="12.00">4</text>
<polyline fill="none" stroke="black" points="1376,-95.87 1633,-95.87 "/>
<text text-anchor="middle" x="1414.5" y="-82.27" font-family="Times,serif" font-size="12.00">log_index:</text>
<text text-anchor="middle" x="1414.5" y="-69.27" font-family="Times,serif" font-size="12.00">5</text>
<polyline fill="none" stroke="black" points="1453,-61.87 1453,-95.87 "/>
<text text-anchor="middle" x="1496.5" y="-82.27" font-family="Times,serif" font-size="12.00">value:</text>
<text text-anchor="middle" x="1496.5" y="-69.27" font-family="Times,serif" font-size="12.00">new second</text>
<polyline fill="none" stroke="black" points="1540,-61.87 1540,-95.87 "/>
<text text-anchor="middle" x="1563.5" y="-82.27" font-family="Times,serif" font-size="12.00">prev:</text>
<text text-anchor="middle" x="1563.5" y="-69.27" font-family="Times,serif" font-size="12.00">6</text>
<polyline fill="none" stroke="black" points="1587,-61.87 1587,-95.87 "/>
<text text-anchor="middle" x="1610" y="-82.27" font-family="Times,serif" font-size="12.00">next:</text>
<text text-anchor="middle" x="1610" y="-69.27" font-family="Times,serif" font-size="12.00">0</text>
</g>
<!-- node6&#45;&gt;node4 -->
<g id="edge9" class="edge">
<title>node6:next&#45;&gt;node4</title>
<path fill="none" stroke="black" d="M1340,-78.87C1348.41,-78.87 1357.05,-79.09 1365.76,-79.49"/>
<polygon fill="black" stroke="black" points="1365.83,-83 1376,-80.04 1366.2,-76.01 1365.83,-83"/>
</g>
<!-- node4&#45;&gt;node6 -->
<g id="edge10" class="edge">
<title>node4:prev&#45;&gt;node6</title>
<path fill="none" stroke="black" d="M1563.5,-60.87C1563.5,45.52 1398.86,-11.91 1297.22,-57.51"/>
<polygon fill="black" stroke="black" points="1295.55,-54.42 1287.89,-61.74 1298.44,-60.8 1295.55,-54.42"/>
</g>
<!-- node0 -->
<g id="node7" class="node">
<title>node0</title>
<polygon fill="none" stroke="black" points="1723,-96.87 1669,-96.87 1669,-60.87 1723,-60.87 1723,-96.87"/>
<text text-anchor="middle" x="1696" y="-75.77" font-family="Times,serif" font-size="12.00">node0</text>
</g>
<!-- node4&#45;&gt;node0 -->
<g id="edge11" class="edge">
<title>node4:next&#45;&gt;node0</title>
<path fill="none" stroke="black" d="M1633,-78.87C1641.34,-76.14 1650.31,-74.24 1658.77,-73.17"/>
<polygon fill="black" stroke="black" points="1659.11,-76.65 1668.75,-72.27 1658.48,-69.68 1659.11,-76.65"/>
</g>
<!-- node0&#45;&gt;node4 -->
<g id="edge12" class="edge">
<title>node0:prev&#45;&gt;node4</title>
<path fill="none" stroke="black" d="M1668.93,-85.48C1660.95,-85.08 1651.95,-83.83 1643.14,-81.72"/>
<polygon fill="black" stroke="black" points="1643.9,-78.3 1633.32,-78.97 1642.01,-85.04 1643.9,-78.3"/>
</g>
</g>
</svg>
