<?xml version="1.0" encoding="UTF-8" standalone="no"?>
<!DOCTYPE svg PUBLIC "-//W3C//DTD SVG 1.1//EN"
 "http://www.w3.org/Graphics/SVG/1.1/DTD/svg11.dtd">
<!-- Generated by graphviz version 2.43.0 (0)
 -->
<!-- Title: G Pages: 1 -->
<svg width="163pt" height="404pt"
 viewBox="0.00 0.00 162.69 404.00" xmlns="http://www.w3.org/2000/svg" xmlns:xlink="http://www.w3.org/1999/xlink">
<g id="graph0" class="graph" transform="scale(1 1) rotate(0) translate(4 400)">
<title>G</title>
<polygon fill="white" stroke="transparent" points="-4,4 -4,-400 158.69,-400 158.69,4 -4,4"/>
<!-- minus one -->
<g id="node1" class="node">
<title>minus one</title>
<ellipse fill="none" stroke="black" cx="77.34" cy="-378" rx="58.49" ry="18"/>
<text text-anchor="middle" x="77.34" y="-374.3" font-family="Times,serif" font-size="14.00">minus one</text>
</g>
<!-- zero -->
<g id="node2" class="node">
<title>zero</title>
<ellipse fill="none" stroke="black" cx="77.34" cy="-306" rx="30.59" ry="18"/>
<text text-anchor="middle" x="77.34" y="-302.3" font-family="Times,serif" font-size="14.00">zero</text>
</g>
<!-- minus one&#45;&gt;zero -->
<g id="edge1" class="edge">
<title>minus one&#45;&gt;zero</title>
<path fill="none" stroke="black" d="M77.34,-359.7C77.34,-351.98 77.34,-342.71 77.34,-334.11"/>
<polygon fill="black" stroke="black" points="80.84,-334.1 77.34,-324.1 73.84,-334.1 80.84,-334.1"/>
</g>
<!-- zero point five -->
<g id="node3" class="node">
<title>zero point five</title>
<ellipse fill="none" stroke="black" cx="77.34" cy="-234" rx="77.19" ry="18"/>
<text text-anchor="middle" x="77.34" y="-230.3" font-family="Times,serif" font-size="14.00">zero point five</text>
</g>
<!-- zero&#45;&gt;zero point five -->
<g id="edge2" class="edge">
<title>zero&#45;&gt;zero point five</title>
<path fill="none" stroke="black" d="M77.34,-287.7C77.34,-279.98 77.34,-270.71 77.34,-262.11"/>
<polygon fill="black" stroke="black" points="80.84,-262.1 77.34,-252.1 73.84,-262.1 80.84,-262.1"/>
</g>
<!-- one -->
<g id="node4" class="node">
<title>one</title>
<ellipse fill="none" stroke="black" cx="77.34" cy="-162" rx="27.1" ry="18"/>
<text text-anchor="middle" x="77.34" y="-158.3" font-family="Times,serif" font-size="14.00">one</text>
</g>
<!-- zero point five&#45;&gt;one -->
<g id="edge3" class="edge">
<title>zero point five&#45;&gt;one</title>
<path fill="none" stroke="black" d="M77.34,-215.7C77.34,-207.98 77.34,-198.71 77.34,-190.11"/>
<polygon fill="black" stroke="black" points="80.84,-190.1 77.34,-180.1 73.84,-190.1 80.84,-190.1"/>
</g>
<!-- two -->
<g id="node5" class="node">
<title>two</title>
<ellipse fill="none" stroke="black" cx="77.34" cy="-90" rx="27.9" ry="18"/>
<text text-anchor="middle" x="77.34" y="-86.3" font-family="Times,serif" font-size="14.00">two</text>
</g>
<!-- one&#45;&gt;two -->
<g id="edge4" class="edge">
<title>one&#45;&gt;two</title>
<path fill="none" stroke="black" d="M77.34,-143.7C77.34,-135.98 77.34,-126.71 77.34,-118.11"/>
<polygon fill="black" stroke="black" points="80.84,-118.1 77.34,-108.1 73.84,-118.1 80.84,-118.1"/>
</g>
<!-- two point five -->
<g id="node6" class="node">
<title>two point five</title>
<ellipse fill="none" stroke="black" cx="77.34" cy="-18" rx="74.19" ry="18"/>
<text text-anchor="middle" x="77.34" y="-14.3" font-family="Times,serif" font-size="14.00">two point five</text>
</g>
<!-- two&#45;&gt;two point five -->
<g id="edge5" class="edge">
<title>two&#45;&gt;two point five</title>
<path fill="none" stroke="black" d="M77.34,-71.7C77.34,-63.98 77.34,-54.71 77.34,-46.11"/>
<polygon fill="black" stroke="black" points="80.84,-46.1 77.34,-36.1 73.84,-46.1 80.84,-46.1"/>
</g>
</g>
</svg>
