<?xml version="1.0" encoding="UTF-8" standalone="no"?>
<!DOCTYPE svg PUBLIC "-//W3C//DTD SVG 1.1//EN"
 "http://www.w3.org/Graphics/SVG/1.1/DTD/svg11.dtd">
<!-- Generated by graphviz version 2.43.0 (0)
 -->
<!-- Title: G Pages: 1 -->
<svg width="962pt" height="274pt"
 viewBox="0.00 0.00 962.00 273.50" xmlns="http://www.w3.org/2000/svg" xmlns:xlink="http://www.w3.org/1999/xlink">
<g id="graph0" class="graph" transform="scale(1 1) rotate(0) translate(4 269.5)">
<title>G</title>
<polygon fill="white" stroke="transparent" points="-4,4 -4,-269.5 958,-269.5 958,4 -4,4"/>
<!-- node0 -->
<g id="node1" class="node">
<title>node0</title>
<polygon fill="lightgrey" stroke="lightgrey" points="54,-90 0,-90 0,-54 54,-54 54,-90"/>
<text text-anchor="middle" x="27" y="-68.9" font-family="Times,serif" font-size="12.00">node0</text>
</g>
<!-- index0 -->
<g id="node2" class="node">
<title>index0</title>
<polygon fill="none" stroke="black" points="54,-144 0,-144 0,-108 54,-108 54,-144"/>
<text text-anchor="middle" x="27" y="-122.9" font-family="Times,serif" font-size="12.00"> 0 </text>
</g>
<!-- index1 -->
<g id="node4" class="node">
<title>index1</title>
<polygon fill="none" stroke="black" points="144,-144 90,-144 90,-108 144,-108 144,-144"/>
<text text-anchor="middle" x="117" y="-122.9" font-family="Times,serif" font-size="12.00"> 1 </text>
</g>
<!-- index0&#45;&gt;index1 -->
<g id="edge1" class="edge">
<title>index0&#45;&gt;index1</title>
<path fill="none" stroke="white" d="M54.4,-126C62.39,-126 71.31,-126 79.82,-126"/>
<polygon fill="white" stroke="white" points="79.92,-129.5 89.92,-126 79.92,-122.5 79.92,-129.5"/>
</g>
<!-- node1 -->
<g id="node3" class="node">
<title>node1</title>
<polygon fill="lightgreen" stroke="black" points="90,-163 90,-265 144,-265 144,-163 90,-163"/>
<text text-anchor="middle" x="117" y="-251.4" font-family="Times,serif" font-size="12.00">value:</text>
<text text-anchor="middle" x="117" y="-238.4" font-family="Times,serif" font-size="12.00">aboba</text>
<polyline fill="none" stroke="black" points="90,-231 144,-231 "/>
<text text-anchor="middle" x="117" y="-217.4" font-family="Times,serif" font-size="12.00">prev:</text>
<text text-anchor="middle" x="117" y="-204.4" font-family="Times,serif" font-size="12.00">0</text>
<polyline fill="none" stroke="black" points="90,-197 144,-197 "/>
<text text-anchor="middle" x="117" y="-183.4" font-family="Times,serif" font-size="12.00">next:</text>
<text text-anchor="middle" x="117" y="-170.4" font-family="Times,serif" font-size="12.00">0</text>
</g>
<!-- index2 -->
<g id="node6" class="node">
<title>index2</title>
<polygon fill="none" stroke="black" points="234,-144 180,-144 180,-108 234,-108 234,-144"/>
<text text-anchor="middle" x="207" y="-122.9" font-family="Times,serif" font-size="12.00"> 2 </text>
</g>
<!-- index1&#45;&gt;index2 -->
<g id="edge2" class="edge">
<title>index1&#45;&gt;index2</title>
<path fill="none" stroke="white" d="M144.4,-126C152.39,-126 161.31,-126 169.82,-126"/>
<polygon fill="white" stroke="white" points="169.92,-129.5 179.92,-126 169.92,-122.5 169.92,-129.5"/>
</g>
<!-- head -->
<g id="node23" class="node">
<title>head</title>
<polygon fill="lightgreen" stroke="lightgreen" points="144,-36 90,-36 90,0 144,0 144,-36"/>
<text text-anchor="middle" x="117" y="-14.9" font-family="Times,serif" font-size="12.00">head</text>
</g>
<!-- index1&#45;&gt;head -->
<g id="edge19" class="edge">
<title>index1&#45;&gt;head</title>
<path fill="none" stroke="black" d="M89.7,-110.46C82.62,-104.97 75.9,-98.12 72,-90 65.07,-75.58 65.07,-68.42 72,-54 74.44,-48.93 77.98,-44.35 82.02,-40.29"/>
<polygon fill="black" stroke="black" points="84.49,-42.77 89.7,-33.54 79.87,-37.51 84.49,-42.77"/>
</g>
<!-- tail -->
<g id="node24" class="node">
<title>tail</title>
<polygon fill="lightblue" stroke="lightblue" points="144,-90 90,-90 90,-54 144,-54 144,-90"/>
<text text-anchor="middle" x="117" y="-68.9" font-family="Times,serif" font-size="12.00">tail</text>
</g>
<!-- index1&#45;&gt;tail -->
<g id="edge20" class="edge">
<title>index1&#45;&gt;tail</title>
<path fill="none" stroke="black" d="M117,-107.79C117,-105.31 117,-102.83 117,-100.34"/>
<polygon fill="black" stroke="black" points="120.5,-100.14 117,-90.14 113.5,-100.14 120.5,-100.14"/>
</g>
<!-- node2 -->
<g id="node5" class="node">
<title>node2</title>
<polygon fill="yellow" stroke="black" points="180,-163 180,-265 234,-265 234,-163 180,-163"/>
<text text-anchor="middle" x="207" y="-251.4" font-family="Times,serif" font-size="12.00">value:</text>
<text text-anchor="middle" x="207" y="-238.4" font-family="Times,serif" font-size="12.00">None</text>
<polyline fill="none" stroke="black" points="180,-231 234,-231 "/>
<text text-anchor="middle" x="207" y="-217.4" font-family="Times,serif" font-size="12.00">prev:</text>
<text text-anchor="middle" x="207" y="-204.4" font-family="Times,serif" font-size="12.00">1</text>
<polyline fill="none" stroke="black" points="180,-197 234,-197 "/>
<text text-anchor="middle" x="207" y="-183.4" font-family="Times,serif" font-size="12.00">next:</text>
<text text-anchor="middle" x="207" y="-170.4" font-family="Times,serif" font-size="12.00">3</text>
</g>
<!-- node3 -->
<g id="node7" class="node">
<title>node3</title>
<polygon fill="yellow" stroke="black" points="270,-163 270,-265 324,-265 324,-163 270,-163"/>
<text text-anchor="middle" x="297" y="-251.4" font-family="Times,serif" font-size="12.00">value:</text>
<text text-anchor="middle" x="297" y="-238.4" font-family="Times,serif" font-size="12.00">None</text>
<polyline fill="none" stroke="black" points="270,-231 324,-231 "/>
<text text-anchor="middle" x="297" y="-217.4" font-family="Times,serif" font-size="12.00">prev:</text>
<text text-anchor="middle" x="297" y="-204.4" font-family="Times,serif" font-size="12.00">2</text>
<polyline fill="none" stroke="black" points="270,-197 324,-197 "/>
<text text-anchor="middle" x="297" y="-183.4" font-family="Times,serif" font-size="12.00">next:</text>
<text text-anchor="middle" x="297" y="-170.4" font-family="Times,serif" font-size="12.00">4</text>
</g>
<!-- node2&#45;&gt;node3 -->
<g id="edge11" class="edge">
<title>node2:next&#45;&gt;node3:next</title>
<path fill="none" stroke="black" d="M234,-180C246,-180 251.25,-180 259.88,-180"/>
<polygon fill="black" stroke="black" points="260,-183.5 270,-180 260,-176.5 260,-183.5"/>
</g>
<!-- index3 -->
<g id="node8" class="node">
<title>index3</title>
<polygon fill="none" stroke="black" points="324,-144 270,-144 270,-108 324,-108 324,-144"/>
<text text-anchor="middle" x="297" y="-122.9" font-family="Times,serif" font-size="12.00"> 3 </text>
</g>
<!-- index2&#45;&gt;index3 -->
<g id="edge3" class="edge">
<title>index2&#45;&gt;index3</title>
<path fill="none" stroke="white" d="M234.4,-126C242.39,-126 251.31,-126 259.82,-126"/>
<polygon fill="white" stroke="white" points="259.92,-129.5 269.92,-126 259.92,-122.5 259.92,-129.5"/>
</g>
<!-- free -->
<g id="node25" class="node">
<title>free</title>
<polygon fill="yellow" stroke="yellow" points="234,-90 180,-90 180,-54 234,-54 234,-90"/>
<text text-anchor="middle" x="207" y="-68.9" font-family="Times,serif" font-size="12.00">free</text>
</g>
<!-- index2&#45;&gt;free -->
<g id="edge21" class="edge">
<title>index2&#45;&gt;free</title>
<path fill="none" stroke="black" d="M207,-107.79C207,-105.31 207,-102.83 207,-100.34"/>
<polygon fill="black" stroke="black" points="210.5,-100.14 207,-90.14 203.5,-100.14 210.5,-100.14"/>
</g>
<!-- node4 -->
<g id="node9" class="node">
<title>node4</title>
<polygon fill="yellow" stroke="black" points="360,-163 360,-265 414,-265 414,-163 360,-163"/>
<text text-anchor="middle" x="387" y="-251.4" font-family="Times,serif" font-size="12.00">value:</text>
<text text-anchor="middle" x="387" y="-238.4" font-family="Times,serif" font-size="12.00">None</text>
<polyline fill="none" stroke="black" points="360,-231 414,-231 "/>
<text text-anchor="middle" x="387" y="-217.4" font-family="Times,serif" font-size="12.00">prev:</text>
<text text-anchor="middle" x="387" y="-204.4" font-family="Times,serif" font-size="12.00">3</text>
<polyline fill="none" stroke="black" points="360,-197 414,-197 "/>
<text text-anchor="middle" x="387" y="-183.4" font-family="Times,serif" font-size="12.00">next:</text>
<text text-anchor="middle" x="387" y="-170.4" font-family="Times,serif" font-size="12.00">5</text>
</g>
<!-- node3&#45;&gt;node4 -->
<g id="edge12" class="edge">
<title>node3:next&#45;&gt;node4:next</title>
<path fill="none" stroke="black" d="M324,-180C336,-180 341.25,-180 349.88,-180"/>
<polygon fill="black" stroke="black" points="350,-183.5 360,-180 350,-176.5 350,-183.5"/>
</g>
<!-- index4 -->
<g id="node10" class="node">
<title>index4</title>
<polygon fill="none" stroke="black" points="414,-144 360,-144 360,-108 414,-108 414,-144"/>
<text text-anchor="middle" x="387" y="-122.9" font-family="Times,serif" font-size="12.00"> 4 </text>
</g>
<!-- index3&#45;&gt;index4 -->
<g id="edge4" class="edge">
<title>index3&#45;&gt;index4</title>
<path fill="none" stroke="white" d="M324.4,-126C332.39,-126 341.31,-126 349.82,-126"/>
<polygon fill="white" stroke="white" points="349.92,-129.5 359.92,-126 349.92,-122.5 349.92,-129.5"/>
</g>
<!-- node5 -->
<g id="node11" class="node">
<title>node5</title>
<polygon fill="yellow" stroke="black" points="450,-163 450,-265 504,-265 504,-163 450,-163"/>
<text text-anchor="middle" x="477" y="-251.4" font-family="Times,serif" font-size="12.00">value:</text>
<text text-anchor="middle" x="477" y="-238.4" font-family="Times,serif" font-size="12.00">None</text>
<polyline fill="none" stroke="black" points="450,-231 504,-231 "/>
<text text-anchor="middle" x="477" y="-217.4" font-family="Times,serif" font-size="12.00">prev:</text>
<text text-anchor="middle" x="477" y="-204.4" font-family="Times,serif" font-size="12.00">4</text>
<polyline fill="none" stroke="black" points="450,-197 504,-197 "/>
<text text-anchor="middle" x="477" y="-183.4" font-family="Times,serif" font-size="12.00">next:</text>
<text text-anchor="middle" x="477" y="-170.4" font-family="Times,serif" font-size="12.00">6</text>
</g>
<!-- node4&#45;&gt;node5 -->
<g id="edge13" class="edge">
<title>node4:next&#45;&gt;node5:next</title>
<path fill="none" stroke="black" d="M414,-180C426,-180 431.25,-180 439.88,-180"/>
<polygon fill="black" stroke="black" points="440,-183.5 450,-180 440,-176.5 440,-183.5"/>
</g>
<!-- index5 -->
<g id="node12" class="node">
<title>index5</title>
<polygon fill="none" stroke="black" points="504,-144 450,-144 450,-108 504,-108 504,-144"/>
<text text-anchor="middle" x="477" y="-122.9" font-family="Times,serif" font-size="12.00"> 5 </text>
</g>
<!-- index4&#45;&gt;index5 -->
<g id="edge5" class="edge">
<title>index4&#45;&gt;index5</title>
<path fill="none" stroke="white" d="M414.4,-126C422.39,-126 431.31,-126 439.82,-126"/>
<polygon fill="white" stroke="white" points="439.92,-129.5 449.92,-126 439.92,-122.5 439.92,-129.5"/>
</g>
<!-- node6 -->
<g id="node13" class="node">
<title>node6</title>
<polygon fill="yellow" stroke="black" points="540,-163 540,-265 594,-265 594,-163 540,-163"/>
<text text-anchor="middle" x="567" y="-251.4" font-family="Times,serif" font-size="12.00">value:</text>
<text text-anchor="middle" x="567" y="-238.4" font-family="Times,serif" font-size="12.00">None</text>
<polyline fill="none" stroke="black" points="540,-231 594,-231 "/>
<text text-anchor="middle" x="567" y="-217.4" font-family="Times,serif" font-size="12.00">prev:</text>
<text text-anchor="middle" x="567" y="-204.4" font-family="Times,serif" font-size="12.00">5</text>
<polyline fill="none" stroke="black" points="540,-197 594,-197 "/>
<text text-anchor="middle" x="567" y="-183.4" font-family="Times,serif" font-size="12.00">next:</text>
<text text-anchor="middle" x="567" y="-170.4" font-family="Times,serif" font-size="12.00">7</text>
</g>
<!-- node5&#45;&gt;node6 -->
<g id="edge14" class="edge">
<title>node5:next&#45;&gt;node6:next</title>
<path fill="none" stroke="black" d="M504,-180C516,-180 521.25,-180 529.88,-180"/>
<polygon fill="black" stroke="black" points="530,-183.5 540,-180 530,-176.5 530,-183.5"/>
</g>
<!-- index6 -->
<g id="node14" class="node">
<title>index6</title>
<polygon fill="none" stroke="black" points="594,-144 540,-144 540,-108 594,-108 594,-144"/>
<text text-anchor="middle" x="567" y="-122.9" font-family="Times,serif" font-size="12.00"> 6 </text>
</g>
<!-- index5&#45;&gt;index6 -->
<g id="edge6" class="edge">
<title>index5&#45;&gt;index6</title>
<path fill="none" stroke="white" d="M504.4,-126C512.39,-126 521.31,-126 529.82,-126"/>
<polygon fill="white" stroke="white" points="529.92,-129.5 539.92,-126 529.92,-122.5 529.92,-129.5"/>
</g>
<!-- node7 -->
<g id="node15" class="node">
<title>node7</title>
<polygon fill="yellow" stroke="black" points="630,-163 630,-265 684,-265 684,-163 630,-163"/>
<text text-anchor="middle" x="657" y="-251.4" font-family="Times,serif" font-size="12.00">value:</text>
<text text-anchor="middle" x="657" y="-238.4" font-family="Times,serif" font-size="12.00">None</text>
<polyline fill="none" stroke="black" points="630,-231 684,-231 "/>
<text text-anchor="middle" x="657" y="-217.4" font-family="Times,serif" font-size="12.00">prev:</text>
<text text-anchor="middle" x="657" y="-204.4" font-family="Times,serif" font-size="12.00">6</text>
<polyline fill="none" stroke="black" points="630,-197 684,-197 "/>
<text text-anchor="middle" x="657" y="-183.4" font-family="Times,serif" font-size="12.00">next:</text>
<text text-anchor="middle" x="657" y="-170.4" font-family="Times,serif" font-size="12.00">8</text>
</g>
<!-- node6&#45;&gt;node7 -->
<g id="edge15" class="edge">
<title>node6:next&#45;&gt;node7:next</title>
<path fill="none" stroke="black" d="M594,-180C606,-180 611.25,-180 619.88,-180"/>
<polygon fill="black" stroke="black" points="620,-183.5 630,-180 620,-176.5 620,-183.5"/>
</g>
<!-- index7 -->
<g id="node16" class="node">
<title>index7</title>
<polygon fill="none" stroke="black" points="684,-144 630,-144 630,-108 684,-108 684,-144"/>
<text text-anchor="middle" x="657" y="-122.9" font-family="Times,serif" font-size="12.00"> 7 </text>
</g>
<!-- index6&#45;&gt;index7 -->
<g id="edge7" class="edge">
<title>index6&#45;&gt;index7</title>
<path fill="none" stroke="white" d="M594.4,-126C602.39,-126 611.31,-126 619.82,-126"/>
<polygon fill="white" stroke="white" points="619.92,-129.5 629.92,-126 619.92,-122.5 619.92,-129.5"/>
</g>
<!-- node8 -->
<g id="node17" class="node">
<title>node8</title>
<polygon fill="yellow" stroke="black" points="720,-163 720,-265 774,-265 774,-163 720,-163"/>
<text text-anchor="middle" x="747" y="-251.4" font-family="Times,serif" font-size="12.00">value:</text>
<text text-anchor="middle" x="747" y="-238.4" font-family="Times,serif" font-size="12.00">None</text>
<polyline fill="none" stroke="black" points="720,-231 774,-231 "/>
<text text-anchor="middle" x="747" y="-217.4" font-family="Times,serif" font-size="12.00">prev:</text>
<text text-anchor="middle" x="747" y="-204.4" font-family="Times,serif" font-size="12.00">7</text>
<polyline fill="none" stroke="black" points="720,-197 774,-197 "/>
<text text-anchor="middle" x="747" y="-183.4" font-family="Times,serif" font-size="12.00">next:</text>
<text text-anchor="middle" x="747" y="-170.4" font-family="Times,serif" font-size="12.00">9</text>
</g>
<!-- node7&#45;&gt;node8 -->
<g id="edge16" class="edge">
<title>node7:next&#45;&gt;node8:next</title>
<path fill="none" stroke="black" d="M684,-180C696,-180 701.25,-180 709.88,-180"/>
<polygon fill="black" stroke="black" points="710,-183.5 720,-180 710,-176.5 710,-183.5"/>
</g>
<!-- index8 -->
<g id="node18" class="node">
<title>index8</title>
<polygon fill="none" stroke="black" points="774,-144 720,-144 720,-108 774,-108 774,-144"/>
<text text-anchor="middle" x="747" y="-122.9" font-family="Times,serif" font-size="12.00"> 8 </text>
</g>
<!-- index7&#45;&gt;index8 -->
<g id="edge8" class="edge">
<title>index7&#45;&gt;index8</title>
<path fill="none" stroke="white" d="M684.4,-126C692.39,-126 701.31,-126 709.82,-126"/>
<polygon fill="white" stroke="white" points="709.92,-129.5 719.92,-126 709.92,-122.5 709.92,-129.5"/>
</g>
<!-- node9 -->
<g id="node19" class="node">
<title>node9</title>
<polygon fill="yellow" stroke="black" points="810,-163 810,-265 864,-265 864,-163 810,-163"/>
<text text-anchor="middle" x="837" y="-251.4" font-family="Times,serif" font-size="12.00">value:</text>
<text text-anchor="middle" x="837" y="-238.4" font-family="Times,serif" font-size="12.00">None</text>
<polyline fill="none" stroke="black" points="810,-231 864,-231 "/>
<text text-anchor="middle" x="837" y="-217.4" font-family="Times,serif" font-size="12.00">prev:</text>
<text text-anchor="middle" x="837" y="-204.4" font-family="Times,serif" font-size="12.00">8</text>
<polyline fill="none" stroke="black" points="810,-197 864,-197 "/>
<text text-anchor="middle" x="837" y="-183.4" font-family="Times,serif" font-size="12.00">next:</text>
<text text-anchor="middle" x="837" y="-170.4" font-family="Times,serif" font-size="12.00">10</text>
</g>
<!-- node8&#45;&gt;node9 -->
<g id="edge17" class="edge">
<title>node8:next&#45;&gt;node9:next</title>
<path fill="none" stroke="black" d="M774,-180C786,-180 791.25,-180 799.88,-180"/>
<polygon fill="black" stroke="black" points="800,-183.5 810,-180 800,-176.5 800,-183.5"/>
</g>
<!-- index9 -->
<g id="node20" class="node">
<title>index9</title>
<polygon fill="none" stroke="black" points="864,-144 810,-144 810,-108 864,-108 864,-144"/>
<text text-anchor="middle" x="837" y="-122.9" font-family="Times,serif" font-size="12.00"> 9 </text>
</g>
<!-- index8&#45;&gt;index9 -->
<g id="edge9" class="edge">
<title>index8&#45;&gt;index9</title>
<path fill="none" stroke="white" d="M774.4,-126C782.39,-126 791.31,-126 799.82,-126"/>
<polygon fill="white" stroke="white" points="799.92,-129.5 809.92,-126 799.92,-122.5 799.92,-129.5"/>
</g>
<!-- node10 -->
<g id="node21" class="node">
<title>node10</title>
<polygon fill="yellow" stroke="black" points="900,-163 900,-265 954,-265 954,-163 900,-163"/>
<text text-anchor="middle" x="927" y="-251.4" font-family="Times,serif" font-size="12.00">value:</text>
<text text-anchor="middle" x="927" y="-238.4" font-family="Times,serif" font-size="12.00">None</text>
<polyline fill="none" stroke="black" points="900,-231 954,-231 "/>
<text text-anchor="middle" x="927" y="-217.4" font-family="Times,serif" font-size="12.00">prev:</text>
<text text-anchor="middle" x="927" y="-204.4" font-family="Times,serif" font-size="12.00">9</text>
<polyline fill="none" stroke="black" points="900,-197 954,-197 "/>
<text text-anchor="middle" x="927" y="-183.4" font-family="Times,serif" font-size="12.00">next:</text>
<text text-anchor="middle" x="927" y="-170.4" font-family="Times,serif" font-size="12.00">0</text>
</g>
<!-- node9&#45;&gt;node10 -->
<g id="edge18" class="edge">
<title>node9:next&#45;&gt;node10:next</title>
<path fill="none" stroke="black" d="M864,-180C876,-180 881.25,-180 889.88,-180"/>
<polygon fill="black" stroke="black" points="890,-183.5 900,-180 890,-176.5 890,-183.5"/>
</g>
<!-- index10 -->
<g id="node22" class="node">
<title>index10</title>
<polygon fill="none" stroke="black" points="954,-144 900,-144 900,-108 954,-108 954,-144"/>
<text text-anchor="middle" x="927" y="-122.9" font-family="Times,serif" font-size="12.00"> 10 </text>
</g>
<!-- index9&#45;&gt;index10 -->
<g id="edge10" class="edge">
<title>index9&#45;&gt;index10</title>
<path fill="none" stroke="white" d="M864.4,-126C872.39,-126 881.31,-126 889.82,-126"/>
<polygon fill="white" stroke="white" points="889.92,-129.5 899.92,-126 889.92,-122.5 889.92,-129.5"/>
</g>
</g>
</svg>
