<?xml version="1.0" encoding="UTF-8" standalone="no"?>
<!DOCTYPE svg PUBLIC "-//W3C//DTD SVG 1.1//EN"
 "http://www.w3.org/Graphics/SVG/1.1/DTD/svg11.dtd">
<!-- Generated by graphviz version 2.43.0 (0)
 -->
<!-- Title: G Pages: 1 -->
<svg width="962pt" height="220pt"
 viewBox="0.00 0.00 962.00 219.50" xmlns="http://www.w3.org/2000/svg" xmlns:xlink="http://www.w3.org/1999/xlink">
<g id="graph0" class="graph" transform="scale(1 1) rotate(0) translate(4 215.5)">
<title>G</title>
<polygon fill="white" stroke="transparent" points="-4,4 -4,-215.5 958,-215.5 958,4 -4,4"/>
<!-- node0 -->
<g id="node1" class="node">
<title>node0</title>
<polygon fill="lightgrey" stroke="lightgrey" points="54,-36 0,-36 0,0 54,0 54,-36"/>
<text text-anchor="middle" x="27" y="-14.9" font-family="Times,serif" font-size="12.00">node0</text>
</g>
<!-- index0 -->
<g id="node2" class="node">
<title>index0</title>
<polygon fill="none" stroke="black" points="54,-90 0,-90 0,-54 54,-54 54,-90"/>
<text text-anchor="middle" x="27" y="-68.9" font-family="Times,serif" font-size="12.00"> 0 </text>
</g>
<!-- index1 -->
<g id="node4" class="node">
<title>index1</title>
<polygon fill="none" stroke="black" points="144,-90 90,-90 90,-54 144,-54 144,-90"/>
<text text-anchor="middle" x="117" y="-68.9" font-family="Times,serif" font-size="12.00"> 1 </text>
</g>
<!-- index0&#45;&gt;index1 -->
<g id="edge1" class="edge">
<title>index0&#45;&gt;index1</title>
<path fill="none" stroke="white" d="M54.4,-72C62.39,-72 71.31,-72 79.82,-72"/>
<polygon fill="white" stroke="white" points="79.92,-75.5 89.92,-72 79.92,-68.5 79.92,-75.5"/>
</g>
<!-- node1 -->
<g id="node3" class="node">
<title>node1</title>
<polygon fill="lightgreen" stroke="black" points="90,-109 90,-211 144,-211 144,-109 90,-109"/>
<text text-anchor="middle" x="117" y="-197.4" font-family="Times,serif" font-size="12.00">value:</text>
<text text-anchor="middle" x="117" y="-184.4" font-family="Times,serif" font-size="12.00">aboba</text>
<polyline fill="none" stroke="black" points="90,-177 144,-177 "/>
<text text-anchor="middle" x="117" y="-163.4" font-family="Times,serif" font-size="12.00">prev:</text>
<text text-anchor="middle" x="117" y="-150.4" font-family="Times,serif" font-size="12.00">0</text>
<polyline fill="none" stroke="black" points="90,-143 144,-143 "/>
<text text-anchor="middle" x="117" y="-129.4" font-family="Times,serif" font-size="12.00">next:</text>
<text text-anchor="middle" x="117" y="-116.4" font-family="Times,serif" font-size="12.00">2</text>
</g>
<!-- node2 -->
<g id="node5" class="node">
<title>node2</title>
<polygon fill="lightblue" stroke="black" points="180,-109 180,-211 234,-211 234,-109 180,-109"/>
<text text-anchor="middle" x="207" y="-197.4" font-family="Times,serif" font-size="12.00">value:</text>
<text text-anchor="middle" x="207" y="-184.4" font-family="Times,serif" font-size="12.00">mem</text>
<polyline fill="none" stroke="black" points="180,-177 234,-177 "/>
<text text-anchor="middle" x="207" y="-163.4" font-family="Times,serif" font-size="12.00">prev:</text>
<text text-anchor="middle" x="207" y="-150.4" font-family="Times,serif" font-size="12.00">1</text>
<polyline fill="none" stroke="black" points="180,-143 234,-143 "/>
<text text-anchor="middle" x="207" y="-129.4" font-family="Times,serif" font-size="12.00">next:</text>
<text text-anchor="middle" x="207" y="-116.4" font-family="Times,serif" font-size="12.00">0</text>
</g>
<!-- node1&#45;&gt;node2 -->
<g id="edge11" class="edge">
<title>node1:next&#45;&gt;node2:next</title>
<path fill="none" stroke="black" d="M144,-126C156,-126 161.25,-126 169.88,-126"/>
<polygon fill="black" stroke="black" points="170,-129.5 180,-126 170,-122.5 170,-129.5"/>
</g>
<!-- index2 -->
<g id="node6" class="node">
<title>index2</title>
<polygon fill="none" stroke="black" points="234,-90 180,-90 180,-54 234,-54 234,-90"/>
<text text-anchor="middle" x="207" y="-68.9" font-family="Times,serif" font-size="12.00"> 2 </text>
</g>
<!-- index1&#45;&gt;index2 -->
<g id="edge2" class="edge">
<title>index1&#45;&gt;index2</title>
<path fill="none" stroke="white" d="M144.4,-72C152.39,-72 161.31,-72 169.82,-72"/>
<polygon fill="white" stroke="white" points="169.92,-75.5 179.92,-72 169.92,-68.5 169.92,-75.5"/>
</g>
<!-- head -->
<g id="node23" class="node">
<title>head</title>
<polygon fill="lightgreen" stroke="lightgreen" points="144,-36 90,-36 90,0 144,0 144,-36"/>
<text text-anchor="middle" x="117" y="-14.9" font-family="Times,serif" font-size="12.00">head</text>
</g>
<!-- index1&#45;&gt;head -->
<g id="edge19" class="edge">
<title>index1&#45;&gt;head</title>
<path fill="none" stroke="black" d="M117,-53.79C117,-51.31 117,-48.83 117,-46.34"/>
<polygon fill="black" stroke="black" points="120.5,-46.14 117,-36.14 113.5,-46.14 120.5,-46.14"/>
</g>
<!-- index3 -->
<g id="node8" class="node">
<title>index3</title>
<polygon fill="none" stroke="black" points="324,-90 270,-90 270,-54 324,-54 324,-90"/>
<text text-anchor="middle" x="297" y="-68.9" font-family="Times,serif" font-size="12.00"> 3 </text>
</g>
<!-- index2&#45;&gt;index3 -->
<g id="edge3" class="edge">
<title>index2&#45;&gt;index3</title>
<path fill="none" stroke="white" d="M234.4,-72C242.39,-72 251.31,-72 259.82,-72"/>
<polygon fill="white" stroke="white" points="259.92,-75.5 269.92,-72 259.92,-68.5 259.92,-75.5"/>
</g>
<!-- tail -->
<g id="node24" class="node">
<title>tail</title>
<polygon fill="lightblue" stroke="lightblue" points="234,-36 180,-36 180,0 234,0 234,-36"/>
<text text-anchor="middle" x="207" y="-14.9" font-family="Times,serif" font-size="12.00">tail</text>
</g>
<!-- index2&#45;&gt;tail -->
<g id="edge20" class="edge">
<title>index2&#45;&gt;tail</title>
<path fill="none" stroke="black" d="M207,-53.79C207,-51.31 207,-48.83 207,-46.34"/>
<polygon fill="black" stroke="black" points="210.5,-46.14 207,-36.14 203.5,-46.14 210.5,-46.14"/>
</g>
<!-- node3 -->
<g id="node7" class="node">
<title>node3</title>
<polygon fill="yellow" stroke="black" points="270,-109 270,-211 324,-211 324,-109 270,-109"/>
<text text-anchor="middle" x="297" y="-197.4" font-family="Times,serif" font-size="12.00">value:</text>
<text text-anchor="middle" x="297" y="-184.4" font-family="Times,serif" font-size="12.00">None</text>
<polyline fill="none" stroke="black" points="270,-177 324,-177 "/>
<text text-anchor="middle" x="297" y="-163.4" font-family="Times,serif" font-size="12.00">prev:</text>
<text text-anchor="middle" x="297" y="-150.4" font-family="Times,serif" font-size="12.00">2</text>
<polyline fill="none" stroke="black" points="270,-143 324,-143 "/>
<text text-anchor="middle" x="297" y="-129.4" font-family="Times,serif" font-size="12.00">next:</text>
<text text-anchor="middle" x="297" y="-116.4" font-family="Times,serif" font-size="12.00">4</text>
</g>
<!-- node4 -->
<g id="node9" class="node">
<title>node4</title>
<polygon fill="yellow" stroke="black" points="360,-109 360,-211 414,-211 414,-109 360,-109"/>
<text text-anchor="middle" x="387" y="-197.4" font-family="Times,serif" font-size="12.00">value:</text>
<text text-anchor="middle" x="387" y="-184.4" font-family="Times,serif" font-size="12.00">None</text>
<polyline fill="none" stroke="black" points="360,-177 414,-177 "/>
<text text-anchor="middle" x="387" y="-163.4" font-family="Times,serif" font-size="12.00">prev:</text>
<text text-anchor="middle" x="387" y="-150.4" font-family="Times,serif" font-size="12.00">3</text>
<polyline fill="none" stroke="black" points="360,-143 414,-143 "/>
<text text-anchor="middle" x="387" y="-129.4" font-family="Times,serif" font-size="12.00">next:</text>
<text text-anchor="middle" x="387" y="-116.4" font-family="Times,serif" font-size="12.00">5</text>
</g>
<!-- node3&#45;&gt;node4 -->
<g id="edge12" class="edge">
<title>node3:next&#45;&gt;node4:next</title>
<path fill="none" stroke="black" d="M324,-126C336,-126 341.25,-126 349.88,-126"/>
<polygon fill="black" stroke="black" points="350,-129.5 360,-126 350,-122.5 350,-129.5"/>
</g>
<!-- index4 -->
<g id="node10" class="node">
<title>index4</title>
<polygon fill="none" stroke="black" points="414,-90 360,-90 360,-54 414,-54 414,-90"/>
<text text-anchor="middle" x="387" y="-68.9" font-family="Times,serif" font-size="12.00"> 4 </text>
</g>
<!-- index3&#45;&gt;index4 -->
<g id="edge4" class="edge">
<title>index3&#45;&gt;index4</title>
<path fill="none" stroke="white" d="M324.4,-72C332.39,-72 341.31,-72 349.82,-72"/>
<polygon fill="white" stroke="white" points="349.92,-75.5 359.92,-72 349.92,-68.5 349.92,-75.5"/>
</g>
<!-- free -->
<g id="node25" class="node">
<title>free</title>
<polygon fill="yellow" stroke="yellow" points="324,-36 270,-36 270,0 324,0 324,-36"/>
<text text-anchor="middle" x="297" y="-14.9" font-family="Times,serif" font-size="12.00">free</text>
</g>
<!-- index3&#45;&gt;free -->
<g id="edge21" class="edge">
<title>index3&#45;&gt;free</title>
<path fill="none" stroke="black" d="M297,-53.79C297,-51.31 297,-48.83 297,-46.34"/>
<polygon fill="black" stroke="black" points="300.5,-46.14 297,-36.14 293.5,-46.14 300.5,-46.14"/>
</g>
<!-- node5 -->
<g id="node11" class="node">
<title>node5</title>
<polygon fill="yellow" stroke="black" points="450,-109 450,-211 504,-211 504,-109 450,-109"/>
<text text-anchor="middle" x="477" y="-197.4" font-family="Times,serif" font-size="12.00">value:</text>
<text text-anchor="middle" x="477" y="-184.4" font-family="Times,serif" font-size="12.00">None</text>
<polyline fill="none" stroke="black" points="450,-177 504,-177 "/>
<text text-anchor="middle" x="477" y="-163.4" font-family="Times,serif" font-size="12.00">prev:</text>
<text text-anchor="middle" x="477" y="-150.4" font-family="Times,serif" font-size="12.00">4</text>
<polyline fill="none" stroke="black" points="450,-143 504,-143 "/>
<text text-anchor="middle" x="477" y="-129.4" font-family="Times,serif" font-size="12.00">next:</text>
<text text-anchor="middle" x="477" y="-116.4" font-family="Times,serif" font-size="12.00">6</text>
</g>
<!-- node4&#45;&gt;node5 -->
<g id="edge13" class="edge">
<title>node4:next&#45;&gt;node5:next</title>
<path fill="none" stroke="black" d="M414,-126C426,-126 431.25,-126 439.88,-126"/>
<polygon fill="black" stroke="black" points="440,-129.5 450,-126 440,-122.5 440,-129.5"/>
</g>
<!-- index5 -->
<g id="node12" class="node">
<title>index5</title>
<polygon fill="none" stroke="black" points="504,-90 450,-90 450,-54 504,-54 504,-90"/>
<text text-anchor="middle" x="477" y="-68.9" font-family="Times,serif" font-size="12.00"> 5 </text>
</g>
<!-- index4&#45;&gt;index5 -->
<g id="edge5" class="edge">
<title>index4&#45;&gt;index5</title>
<path fill="none" stroke="white" d="M414.4,-72C422.39,-72 431.31,-72 439.82,-72"/>
<polygon fill="white" stroke="white" points="439.92,-75.5 449.92,-72 439.92,-68.5 439.92,-75.5"/>
</g>
<!-- node6 -->
<g id="node13" class="node">
<title>node6</title>
<polygon fill="yellow" stroke="black" points="540,-109 540,-211 594,-211 594,-109 540,-109"/>
<text text-anchor="middle" x="567" y="-197.4" font-family="Times,serif" font-size="12.00">value:</text>
<text text-anchor="middle" x="567" y="-184.4" font-family="Times,serif" font-size="12.00">None</text>
<polyline fill="none" stroke="black" points="540,-177 594,-177 "/>
<text text-anchor="middle" x="567" y="-163.4" font-family="Times,serif" font-size="12.00">prev:</text>
<text text-anchor="middle" x="567" y="-150.4" font-family="Times,serif" font-size="12.00">5</text>
<polyline fill="none" stroke="black" points="540,-143 594,-143 "/>
<text text-anchor="middle" x="567" y="-129.4" font-family="Times,serif" font-size="12.00">next:</text>
<text text-anchor="middle" x="567" y="-116.4" font-family="Times,serif" font-size="12.00">7</text>
</g>
<!-- node5&#45;&gt;node6 -->
<g id="edge14" class="edge">
<title>node5:next&#45;&gt;node6:next</title>
<path fill="none" stroke="black" d="M504,-126C516,-126 521.25,-126 529.88,-126"/>
<polygon fill="black" stroke="black" points="530,-129.5 540,-126 530,-122.5 530,-129.5"/>
</g>
<!-- index6 -->
<g id="node14" class="node">
<title>index6</title>
<polygon fill="none" stroke="black" points="594,-90 540,-90 540,-54 594,-54 594,-90"/>
<text text-anchor="middle" x="567" y="-68.9" font-family="Times,serif" font-size="12.00"> 6 </text>
</g>
<!-- index5&#45;&gt;index6 -->
<g id="edge6" class="edge">
<title>index5&#45;&gt;index6</title>
<path fill="none" stroke="white" d="M504.4,-72C512.39,-72 521.31,-72 529.82,-72"/>
<polygon fill="white" stroke="white" points="529.92,-75.5 539.92,-72 529.92,-68.5 529.92,-75.5"/>
</g>
<!-- node7 -->
<g id="node15" class="node">
<title>node7</title>
<polygon fill="yellow" stroke="black" points="630,-109 630,-211 684,-211 684,-109 630,-109"/>
<text text-anchor="middle" x="657" y="-197.4" font-family="Times,serif" font-size="12.00">value:</text>
<text text-anchor="middle" x="657" y="-184.4" font-family="Times,serif" font-size="12.00">None</text>
<polyline fill="none" stroke="black" points="630,-177 684,-177 "/>
<text text-anchor="middle" x="657" y="-163.4" font-family="Times,serif" font-size="12.00">prev:</text>
<text text-anchor="middle" x="657" y="-150.4" font-family="Times,serif" font-size="12.00">6</text>
<polyline fill="none" stroke="black" points="630,-143 684,-143 "/>
<text text-anchor="middle" x="657" y="-129.4" font-family="Times,serif" font-size="12.00">next:</text>
<text text-anchor="middle" x="657" y="-116.4" font-family="Times,serif" font-size="12.00">8</text>
</g>
<!-- node6&#45;&gt;node7 -->
<g id="edge15" class="edge">
<title>node6:next&#45;&gt;node7:next</title>
<path fill="none" stroke="black" d="M594,-126C606,-126 611.25,-126 619.88,-126"/>
<polygon fill="black" stroke="black" points="620,-129.5 630,-126 620,-122.5 620,-129.5"/>
</g>
<!-- index7 -->
<g id="node16" class="node">
<title>index7</title>
<polygon fill="none" stroke="black" points="684,-90 630,-90 630,-54 684,-54 684,-90"/>
<text text-anchor="middle" x="657" y="-68.9" font-family="Times,serif" font-size="12.00"> 7 </text>
</g>
<!-- index6&#45;&gt;index7 -->
<g id="edge7" class="edge">
<title>index6&#45;&gt;index7</title>
<path fill="none" stroke="white" d="M594.4,-72C602.39,-72 611.31,-72 619.82,-72"/>
<polygon fill="white" stroke="white" points="619.92,-75.5 629.92,-72 619.92,-68.5 619.92,-75.5"/>
</g>
<!-- node8 -->
<g id="node17" class="node">
<title>node8</title>
<polygon fill="yellow" stroke="black" points="720,-109 720,-211 774,-211 774,-109 720,-109"/>
<text text-anchor="middle" x="747" y="-197.4" font-family="Times,serif" font-size="12.00">value:</text>
<text text-anchor="middle" x="747" y="-184.4" font-family="Times,serif" font-size="12.00">None</text>
<polyline fill="none" stroke="black" points="720,-177 774,-177 "/>
<text text-anchor="middle" x="747" y="-163.4" font-family="Times,serif" font-size="12.00">prev:</text>
<text text-anchor="middle" x="747" y="-150.4" font-family="Times,serif" font-size="12.00">7</text>
<polyline fill="none" stroke="black" points="720,-143 774,-143 "/>
<text text-anchor="middle" x="747" y="-129.4" font-family="Times,serif" font-size="12.00">next:</text>
<text text-anchor="middle" x="747" y="-116.4" font-family="Times,serif" font-size="12.00">9</text>
</g>
<!-- node7&#45;&gt;node8 -->
<g id="edge16" class="edge">
<title>node7:next&#45;&gt;node8:next</title>
<path fill="none" stroke="black" d="M684,-126C696,-126 701.25,-126 709.88,-126"/>
<polygon fill="black" stroke="black" points="710,-129.5 720,-126 710,-122.5 710,-129.5"/>
</g>
<!-- index8 -->
<g id="node18" class="node">
<title>index8</title>
<polygon fill="none" stroke="black" points="774,-90 720,-90 720,-54 774,-54 774,-90"/>
<text text-anchor="middle" x="747" y="-68.9" font-family="Times,serif" font-size="12.00"> 8 </text>
</g>
<!-- index7&#45;&gt;index8 -->
<g id="edge8" class="edge">
<title>index7&#45;&gt;index8</title>
<path fill="none" stroke="white" d="M684.4,-72C692.39,-72 701.31,-72 709.82,-72"/>
<polygon fill="white" stroke="white" points="709.92,-75.5 719.92,-72 709.92,-68.5 709.92,-75.5"/>
</g>
<!-- node9 -->
<g id="node19" class="node">
<title>node9</title>
<polygon fill="yellow" stroke="black" points="810,-109 810,-211 864,-211 864,-109 810,-109"/>
<text text-anchor="middle" x="837" y="-197.4" font-family="Times,serif" font-size="12.00">value:</text>
<text text-anchor="middle" x="837" y="-184.4" font-family="Times,serif" font-size="12.00">None</text>
<polyline fill="none" stroke="black" points="810,-177 864,-177 "/>
<text text-anchor="middle" x="837" y="-163.4" font-family="Times,serif" font-size="12.00">prev:</text>
<text text-anchor="middle" x="837" y="-150.4" font-family="Times,serif" font-size="12.00">8</text>
<polyline fill="none" stroke="black" points="810,-143 864,-143 "/>
<text text-anchor="middle" x="837" y="-129.4" font-family="Times,serif" font-size="12.00">next:</text>
<text text-anchor="middle" x="837" y="-116.4" font-family="Times,serif" font-size="12.00">10</text>
</g>
<!-- node8&#45;&gt;node9 -->
<g id="edge17" class="edge">
<title>node8:next&#45;&gt;node9:next</title>
<path fill="none" stroke="black" d="M774,-126C786,-126 791.25,-126 799.88,-126"/>
<polygon fill="black" stroke="black" points="800,-129.5 810,-126 800,-122.5 800,-129.5"/>
</g>
<!-- index9 -->
<g id="node20" class="node">
<title>index9</title>
<polygon fill="none" stroke="black" points="864,-90 810,-90 810,-54 864,-54 864,-90"/>
<text text-anchor="middle" x="837" y="-68.9" font-family="Times,serif" font-size="12.00"> 9 </text>
</g>
<!-- index8&#45;&gt;index9 -->
<g id="edge9" class="edge">
<title>index8&#45;&gt;index9</title>
<path fill="none" stroke="white" d="M774.4,-72C782.39,-72 791.31,-72 799.82,-72"/>
<polygon fill="white" stroke="white" points="799.92,-75.5 809.92,-72 799.92,-68.5 799.92,-75.5"/>
</g>
<!-- node10 -->
<g id="node21" class="node">
<title>node10</title>
<polygon fill="yellow" stroke="black" points="900,-109 900,-211 954,-211 954,-109 900,-109"/>
<text text-anchor="middle" x="927" y="-197.4" font-family="Times,serif" font-size="12.00">value:</text>
<text text-anchor="middle" x="927" y="-184.4" font-family="Times,serif" font-size="12.00">None</text>
<polyline fill="none" stroke="black" points="900,-177 954,-177 "/>
<text text-anchor="middle" x="927" y="-163.4" font-family="Times,serif" font-size="12.00">prev:</text>
<text text-anchor="middle" x="927" y="-150.4" font-family="Times,serif" font-size="12.00">9</text>
<polyline fill="none" stroke="black" points="900,-143 954,-143 "/>
<text text-anchor="middle" x="927" y="-129.4" font-family="Times,serif" font-size="12.00">next:</text>
<text text-anchor="middle" x="927" y="-116.4" font-family="Times,serif" font-size="12.00">0</text>
</g>
<!-- node9&#45;&gt;node10 -->
<g id="edge18" class="edge">
<title>node9:next&#45;&gt;node10:next</title>
<path fill="none" stroke="black" d="M864,-126C876,-126 881.25,-126 889.88,-126"/>
<polygon fill="black" stroke="black" points="890,-129.5 900,-126 890,-122.5 890,-129.5"/>
</g>
<!-- index10 -->
<g id="node22" class="node">
<title>index10</title>
<polygon fill="none" stroke="black" points="954,-90 900,-90 900,-54 954,-54 954,-90"/>
<text text-anchor="middle" x="927" y="-68.9" font-family="Times,serif" font-size="12.00"> 10 </text>
</g>
<!-- index9&#45;&gt;index10 -->
<g id="edge10" class="edge">
<title>index9&#45;&gt;index10</title>
<path fill="none" stroke="white" d="M864.4,-72C872.39,-72 881.31,-72 889.82,-72"/>
<polygon fill="white" stroke="white" points="889.92,-75.5 899.92,-72 889.92,-68.5 889.92,-75.5"/>
</g>
</g>
</svg>
