<?xml version="1.0" encoding="UTF-8" standalone="no"?>
<!DOCTYPE svg PUBLIC "-//W3C//DTD SVG 1.1//EN"
 "http://www.w3.org/Graphics/SVG/1.1/DTD/svg11.dtd">
<!-- Generated by graphviz version 2.43.0 (0)
 -->
<!-- Title: G Pages: 1 -->
<svg width="797pt" height="542pt"
 viewBox="0.00 0.00 797.00 541.50" xmlns="http://www.w3.org/2000/svg" xmlns:xlink="http://www.w3.org/1999/xlink">
<g id="graph0" class="graph" transform="scale(1 1) rotate(0) translate(4 537.5)">
<title>G</title>
<polygon fill="white" stroke="transparent" points="-4,4 -4,-537.5 793,-537.5 793,4 -4,4"/>
<!-- node0 -->
<g id="node1" class="node">
<title>node0</title>
<polygon fill="lightgrey" stroke="lightgrey" points="54,-182 0,-182 0,-146 54,-146 54,-182"/>
<text text-anchor="middle" x="27" y="-160.9" font-family="Times,serif" font-size="12.00">node0</text>
</g>
<!-- index0 -->
<g id="node2" class="node">
<title>index0</title>
<polygon fill="none" stroke="black" points="54,-236 0,-236 0,-200 54,-200 54,-236"/>
<text text-anchor="middle" x="27" y="-214.9" font-family="Times,serif" font-size="12.00"> 0 </text>
</g>
<!-- index1 -->
<g id="node4" class="node">
<title>index1</title>
<polygon fill="none" stroke="black" points="144,-236 90,-236 90,-200 144,-200 144,-236"/>
<text text-anchor="middle" x="117" y="-214.9" font-family="Times,serif" font-size="12.00"> 1 </text>
</g>
<!-- index0&#45;&gt;index1 -->
<g id="edge1" class="edge">
<title>index0&#45;&gt;index1</title>
<path fill="none" stroke="white" d="M54.4,-218C62.39,-218 71.31,-218 79.82,-218"/>
<polygon fill="white" stroke="white" points="79.92,-221.5 89.92,-218 79.92,-214.5 79.92,-221.5"/>
</g>
<!-- node1 -->
<g id="node3" class="node">
<title>node1</title>
<polygon fill="pink" stroke="black" points="90,-264 90,-366 144,-366 144,-264 90,-264"/>
<text text-anchor="middle" x="117" y="-352.4" font-family="Times,serif" font-size="12.00">value:</text>
<text text-anchor="middle" x="117" y="-339.4" font-family="Times,serif" font-size="12.00">aboba</text>
<polyline fill="none" stroke="black" points="90,-332 144,-332 "/>
<text text-anchor="middle" x="117" y="-318.4" font-family="Times,serif" font-size="12.00">prev:</text>
<text text-anchor="middle" x="117" y="-305.4" font-family="Times,serif" font-size="12.00">3</text>
<polyline fill="none" stroke="black" points="90,-298 144,-298 "/>
<text text-anchor="middle" x="117" y="-284.4" font-family="Times,serif" font-size="12.00">next:</text>
<text text-anchor="middle" x="117" y="-271.4" font-family="Times,serif" font-size="12.00">4</text>
</g>
<!-- node4 -->
<g id="node9" class="node">
<title>node4</title>
<polygon fill="pink" stroke="black" points="180,-310 180,-412 234,-412 234,-310 180,-310"/>
<text text-anchor="middle" x="207" y="-398.4" font-family="Times,serif" font-size="12.00">value:</text>
<text text-anchor="middle" x="207" y="-385.4" font-family="Times,serif" font-size="12.00">last</text>
<polyline fill="none" stroke="black" points="180,-378 234,-378 "/>
<text text-anchor="middle" x="207" y="-364.4" font-family="Times,serif" font-size="12.00">prev:</text>
<text text-anchor="middle" x="207" y="-351.4" font-family="Times,serif" font-size="12.00">1</text>
<polyline fill="none" stroke="black" points="180,-344 234,-344 "/>
<text text-anchor="middle" x="207" y="-330.4" font-family="Times,serif" font-size="12.00">next:</text>
<text text-anchor="middle" x="207" y="-317.4" font-family="Times,serif" font-size="12.00">2</text>
</g>
<!-- node1&#45;&gt;node4 -->
<g id="edge11" class="edge">
<title>node1:next&#45;&gt;node4:next</title>
<path fill="none" stroke="black" d="M144,-281C165.7,-281 158.14,-313.14 170.23,-323.69"/>
<polygon fill="black" stroke="black" points="169.41,-327.11 180,-327 171.65,-320.48 169.41,-327.11"/>
</g>
<!-- index2 -->
<g id="node6" class="node">
<title>index2</title>
<polygon fill="none" stroke="black" points="324,-236 270,-236 270,-200 324,-200 324,-236"/>
<text text-anchor="middle" x="297" y="-214.9" font-family="Times,serif" font-size="12.00"> 2 </text>
</g>
<!-- index1&#45;&gt;index2 -->
<g id="edge2" class="edge">
<title>index1&#45;&gt;index2</title>
<path fill="none" stroke="white" d="M144.26,-218C174.85,-218 225.55,-218 259.84,-218"/>
<polygon fill="white" stroke="white" points="259.92,-221.5 269.92,-218 259.92,-214.5 259.92,-221.5"/>
</g>
<!-- node2 -->
<g id="node5" class="node">
<title>node2</title>
<polygon fill="lightblue" stroke="black" points="270,-310 270,-412 324,-412 324,-310 270,-310"/>
<text text-anchor="middle" x="297" y="-398.4" font-family="Times,serif" font-size="12.00">value:</text>
<text text-anchor="middle" x="297" y="-385.4" font-family="Times,serif" font-size="12.00">mem</text>
<polyline fill="none" stroke="black" points="270,-378 324,-378 "/>
<text text-anchor="middle" x="297" y="-364.4" font-family="Times,serif" font-size="12.00">prev:</text>
<text text-anchor="middle" x="297" y="-351.4" font-family="Times,serif" font-size="12.00">4</text>
<polyline fill="none" stroke="black" points="270,-344 324,-344 "/>
<text text-anchor="middle" x="297" y="-330.4" font-family="Times,serif" font-size="12.00">next:</text>
<text text-anchor="middle" x="297" y="-317.4" font-family="Times,serif" font-size="12.00">0</text>
</g>
<!-- index3 -->
<g id="node8" class="node">
<title>index3</title>
<polygon fill="none" stroke="black" points="421.5,-226 367.5,-226 367.5,-190 421.5,-190 421.5,-226"/>
<text text-anchor="middle" x="394.5" y="-204.9" font-family="Times,serif" font-size="12.00"> 3 </text>
</g>
<!-- index2&#45;&gt;index3 -->
<g id="edge3" class="edge">
<title>index2&#45;&gt;index3</title>
<path fill="none" stroke="white" d="M324.1,-215.27C334.31,-214.2 346.2,-212.95 357.22,-211.8"/>
<polygon fill="white" stroke="white" points="357.85,-215.25 367.44,-210.73 357.13,-208.29 357.85,-215.25"/>
</g>
<!-- tail -->
<g id="node24" class="node">
<title>tail</title>
<polygon fill="lightblue" stroke="lightblue" points="324,-182 270,-182 270,-146 324,-146 324,-182"/>
<text text-anchor="middle" x="297" y="-160.9" font-family="Times,serif" font-size="12.00">tail</text>
</g>
<!-- index2&#45;&gt;tail -->
<g id="edge20" class="edge">
<title>index2&#45;&gt;tail</title>
<path fill="none" stroke="black" d="M297,-199.79C297,-197.31 297,-194.83 297,-192.34"/>
<polygon fill="black" stroke="black" points="300.5,-192.14 297,-182.14 293.5,-192.14 300.5,-192.14"/>
</g>
<!-- node3 -->
<g id="node7" class="node">
<title>node3</title>
<polygon fill="lightgreen" stroke="black" points="360,-264 360,-366 429,-366 429,-264 360,-264"/>
<text text-anchor="middle" x="394.5" y="-352.4" font-family="Times,serif" font-size="12.00">value:</text>
<text text-anchor="middle" x="394.5" y="-339.4" font-family="Times,serif" font-size="12.00">ahahaha</text>
<polyline fill="none" stroke="black" points="360,-332 429,-332 "/>
<text text-anchor="middle" x="394.5" y="-318.4" font-family="Times,serif" font-size="12.00">prev:</text>
<text text-anchor="middle" x="394.5" y="-305.4" font-family="Times,serif" font-size="12.00">0</text>
<polyline fill="none" stroke="black" points="360,-298 429,-298 "/>
<text text-anchor="middle" x="394.5" y="-284.4" font-family="Times,serif" font-size="12.00">next:</text>
<text text-anchor="middle" x="394.5" y="-271.4" font-family="Times,serif" font-size="12.00">1</text>
</g>
<!-- node3&#45;&gt;node1 -->
<g id="edge12" class="edge">
<title>node3:next&#45;&gt;node1:next</title>
<path fill="none" stroke="black" d="M360,-281C267.47,-281 241.83,-281 154.13,-281"/>
<polygon fill="black" stroke="black" points="154,-277.5 144,-281 154,-284.5 154,-277.5"/>
</g>
<!-- index4 -->
<g id="node10" class="node">
<title>index4</title>
<polygon fill="none" stroke="black" points="234,-113 180,-113 180,-77 234,-77 234,-113"/>
<text text-anchor="middle" x="207" y="-91.9" font-family="Times,serif" font-size="12.00"> 4 </text>
</g>
<!-- index3&#45;&gt;index4 -->
<g id="edge4" class="edge">
<title>index3&#45;&gt;index4</title>
<path fill="none" stroke="white" d="M369.54,-189.71C366.24,-186.9 362.97,-183.95 360,-181 342.07,-163.2 344.62,-151.6 324,-137 299.99,-119.99 268.34,-109.15 244.17,-102.74"/>
<polygon fill="white" stroke="white" points="244.87,-99.31 234.31,-100.27 243.16,-106.1 244.87,-99.31"/>
</g>
<!-- head -->
<g id="node23" class="node">
<title>head</title>
<polygon fill="lightgreen" stroke="lightgreen" points="421.5,-172 367.5,-172 367.5,-136 421.5,-136 421.5,-172"/>
<text text-anchor="middle" x="394.5" y="-150.9" font-family="Times,serif" font-size="12.00">head</text>
</g>
<!-- index3&#45;&gt;head -->
<g id="edge19" class="edge">
<title>index3&#45;&gt;head</title>
<path fill="none" stroke="black" d="M394.5,-189.79C394.5,-187.31 394.5,-184.83 394.5,-182.34"/>
<polygon fill="black" stroke="black" points="398,-182.14 394.5,-172.14 391,-182.14 398,-182.14"/>
</g>
<!-- node4&#45;&gt;node2 -->
<g id="edge13" class="edge">
<title>node4:next&#45;&gt;node2:next</title>
<path fill="none" stroke="black" d="M234,-327C246,-327 251.25,-327 259.88,-327"/>
<polygon fill="black" stroke="black" points="260,-330.5 270,-327 260,-323.5 260,-330.5"/>
</g>
<!-- index5 -->
<g id="node12" class="node">
<title>index5</title>
<polygon fill="none" stroke="black" points="324,-90 270,-90 270,-54 324,-54 324,-90"/>
<text text-anchor="middle" x="297" y="-68.9" font-family="Times,serif" font-size="12.00"> 5 </text>
</g>
<!-- index4&#45;&gt;index5 -->
<g id="edge5" class="edge">
<title>index4&#45;&gt;index5</title>
<path fill="none" stroke="white" d="M234.4,-88.1C242.48,-85.99 251.51,-83.63 260.1,-81.38"/>
<polygon fill="white" stroke="white" points="261.13,-84.73 269.92,-78.82 259.36,-77.96 261.13,-84.73"/>
</g>
<!-- node5 -->
<g id="node11" class="node">
<title>node5</title>
<polygon fill="yellow" stroke="black" points="270,-431 270,-533 324,-533 324,-431 270,-431"/>
<text text-anchor="middle" x="297" y="-519.4" font-family="Times,serif" font-size="12.00">value:</text>
<text text-anchor="middle" x="297" y="-506.4" font-family="Times,serif" font-size="12.00">None</text>
<polyline fill="none" stroke="black" points="270,-499 324,-499 "/>
<text text-anchor="middle" x="297" y="-485.4" font-family="Times,serif" font-size="12.00">prev:</text>
<text text-anchor="middle" x="297" y="-472.4" font-family="Times,serif" font-size="12.00">4</text>
<polyline fill="none" stroke="black" points="270,-465 324,-465 "/>
<text text-anchor="middle" x="297" y="-451.4" font-family="Times,serif" font-size="12.00">next:</text>
<text text-anchor="middle" x="297" y="-438.4" font-family="Times,serif" font-size="12.00">6</text>
</g>
<!-- node6 -->
<g id="node13" class="node">
<title>node6</title>
<polygon fill="yellow" stroke="black" points="367.5,-431 367.5,-533 421.5,-533 421.5,-431 367.5,-431"/>
<text text-anchor="middle" x="394.5" y="-519.4" font-family="Times,serif" font-size="12.00">value:</text>
<text text-anchor="middle" x="394.5" y="-506.4" font-family="Times,serif" font-size="12.00">None</text>
<polyline fill="none" stroke="black" points="367.5,-499 421.5,-499 "/>
<text text-anchor="middle" x="394.5" y="-485.4" font-family="Times,serif" font-size="12.00">prev:</text>
<text text-anchor="middle" x="394.5" y="-472.4" font-family="Times,serif" font-size="12.00">5</text>
<polyline fill="none" stroke="black" points="367.5,-465 421.5,-465 "/>
<text text-anchor="middle" x="394.5" y="-451.4" font-family="Times,serif" font-size="12.00">next:</text>
<text text-anchor="middle" x="394.5" y="-438.4" font-family="Times,serif" font-size="12.00">7</text>
</g>
<!-- node5&#45;&gt;node6 -->
<g id="edge14" class="edge">
<title>node5:next&#45;&gt;node6:next</title>
<path fill="none" stroke="black" d="M324,-448C338.9,-448 344.99,-448 356.17,-448"/>
<polygon fill="black" stroke="black" points="356.5,-451.5 366.5,-448 356.5,-444.5 356.5,-451.5"/>
</g>
<!-- index6 -->
<g id="node14" class="node">
<title>index6</title>
<polygon fill="none" stroke="black" points="421.5,-90 367.5,-90 367.5,-54 421.5,-54 421.5,-90"/>
<text text-anchor="middle" x="394.5" y="-68.9" font-family="Times,serif" font-size="12.00"> 6 </text>
</g>
<!-- index5&#45;&gt;index6 -->
<g id="edge6" class="edge">
<title>index5&#45;&gt;index6</title>
<path fill="none" stroke="white" d="M324.1,-72C334.31,-72 346.2,-72 357.22,-72"/>
<polygon fill="white" stroke="white" points="357.44,-75.5 367.44,-72 357.44,-68.5 357.44,-75.5"/>
</g>
<!-- free -->
<g id="node25" class="node">
<title>free</title>
<polygon fill="yellow" stroke="yellow" points="324,-36 270,-36 270,0 324,0 324,-36"/>
<text text-anchor="middle" x="297" y="-14.9" font-family="Times,serif" font-size="12.00">free</text>
</g>
<!-- index5&#45;&gt;free -->
<g id="edge21" class="edge">
<title>index5&#45;&gt;free</title>
<path fill="none" stroke="black" d="M297,-53.79C297,-51.31 297,-48.83 297,-46.34"/>
<polygon fill="black" stroke="black" points="300.5,-46.14 297,-36.14 293.5,-46.14 300.5,-46.14"/>
</g>
<!-- node7 -->
<g id="node15" class="node">
<title>node7</title>
<polygon fill="yellow" stroke="black" points="465,-431 465,-533 519,-533 519,-431 465,-431"/>
<text text-anchor="middle" x="492" y="-519.4" font-family="Times,serif" font-size="12.00">value:</text>
<text text-anchor="middle" x="492" y="-506.4" font-family="Times,serif" font-size="12.00">None</text>
<polyline fill="none" stroke="black" points="465,-499 519,-499 "/>
<text text-anchor="middle" x="492" y="-485.4" font-family="Times,serif" font-size="12.00">prev:</text>
<text text-anchor="middle" x="492" y="-472.4" font-family="Times,serif" font-size="12.00">6</text>
<polyline fill="none" stroke="black" points="465,-465 519,-465 "/>
<text text-anchor="middle" x="492" y="-451.4" font-family="Times,serif" font-size="12.00">next:</text>
<text text-anchor="middle" x="492" y="-438.4" font-family="Times,serif" font-size="12.00">8</text>
</g>
<!-- node6&#45;&gt;node7 -->
<g id="edge15" class="edge">
<title>node6:next&#45;&gt;node7:next</title>
<path fill="none" stroke="black" d="M422.5,-448C437.4,-448 443.49,-448 454.67,-448"/>
<polygon fill="black" stroke="black" points="455,-451.5 465,-448 455,-444.5 455,-451.5"/>
</g>
<!-- index7 -->
<g id="node16" class="node">
<title>index7</title>
<polygon fill="none" stroke="black" points="519,-90 465,-90 465,-54 519,-54 519,-90"/>
<text text-anchor="middle" x="492" y="-68.9" font-family="Times,serif" font-size="12.00"> 7 </text>
</g>
<!-- index6&#45;&gt;index7 -->
<g id="edge7" class="edge">
<title>index6&#45;&gt;index7</title>
<path fill="none" stroke="white" d="M421.6,-72C431.81,-72 443.7,-72 454.72,-72"/>
<polygon fill="white" stroke="white" points="454.94,-75.5 464.94,-72 454.94,-68.5 454.94,-75.5"/>
</g>
<!-- node8 -->
<g id="node17" class="node">
<title>node8</title>
<polygon fill="yellow" stroke="black" points="555,-431 555,-533 609,-533 609,-431 555,-431"/>
<text text-anchor="middle" x="582" y="-519.4" font-family="Times,serif" font-size="12.00">value:</text>
<text text-anchor="middle" x="582" y="-506.4" font-family="Times,serif" font-size="12.00">None</text>
<polyline fill="none" stroke="black" points="555,-499 609,-499 "/>
<text text-anchor="middle" x="582" y="-485.4" font-family="Times,serif" font-size="12.00">prev:</text>
<text text-anchor="middle" x="582" y="-472.4" font-family="Times,serif" font-size="12.00">7</text>
<polyline fill="none" stroke="black" points="555,-465 609,-465 "/>
<text text-anchor="middle" x="582" y="-451.4" font-family="Times,serif" font-size="12.00">next:</text>
<text text-anchor="middle" x="582" y="-438.4" font-family="Times,serif" font-size="12.00">9</text>
</g>
<!-- node7&#45;&gt;node8 -->
<g id="edge16" class="edge">
<title>node7:next&#45;&gt;node8:next</title>
<path fill="none" stroke="black" d="M519,-448C531,-448 536.25,-448 544.88,-448"/>
<polygon fill="black" stroke="black" points="545,-451.5 555,-448 545,-444.5 545,-451.5"/>
</g>
<!-- index8 -->
<g id="node18" class="node">
<title>index8</title>
<polygon fill="none" stroke="black" points="609,-90 555,-90 555,-54 609,-54 609,-90"/>
<text text-anchor="middle" x="582" y="-68.9" font-family="Times,serif" font-size="12.00"> 8 </text>
</g>
<!-- index7&#45;&gt;index8 -->
<g id="edge8" class="edge">
<title>index7&#45;&gt;index8</title>
<path fill="none" stroke="white" d="M519.4,-72C527.39,-72 536.31,-72 544.82,-72"/>
<polygon fill="white" stroke="white" points="544.92,-75.5 554.92,-72 544.92,-68.5 544.92,-75.5"/>
</g>
<!-- node9 -->
<g id="node19" class="node">
<title>node9</title>
<polygon fill="yellow" stroke="black" points="645,-431 645,-533 699,-533 699,-431 645,-431"/>
<text text-anchor="middle" x="672" y="-519.4" font-family="Times,serif" font-size="12.00">value:</text>
<text text-anchor="middle" x="672" y="-506.4" font-family="Times,serif" font-size="12.00">None</text>
<polyline fill="none" stroke="black" points="645,-499 699,-499 "/>
<text text-anchor="middle" x="672" y="-485.4" font-family="Times,serif" font-size="12.00">prev:</text>
<text text-anchor="middle" x="672" y="-472.4" font-family="Times,serif" font-size="12.00">8</text>
<polyline fill="none" stroke="black" points="645,-465 699,-465 "/>
<text text-anchor="middle" x="672" y="-451.4" font-family="Times,serif" font-size="12.00">next:</text>
<text text-anchor="middle" x="672" y="-438.4" font-family="Times,serif" font-size="12.00">10</text>
</g>
<!-- node8&#45;&gt;node9 -->
<g id="edge17" class="edge">
<title>node8:next&#45;&gt;node9:next</title>
<path fill="none" stroke="black" d="M609,-448C621,-448 626.25,-448 634.88,-448"/>
<polygon fill="black" stroke="black" points="635,-451.5 645,-448 635,-444.5 635,-451.5"/>
</g>
<!-- index9 -->
<g id="node20" class="node">
<title>index9</title>
<polygon fill="none" stroke="black" points="699,-90 645,-90 645,-54 699,-54 699,-90"/>
<text text-anchor="middle" x="672" y="-68.9" font-family="Times,serif" font-size="12.00"> 9 </text>
</g>
<!-- index8&#45;&gt;index9 -->
<g id="edge9" class="edge">
<title>index8&#45;&gt;index9</title>
<path fill="none" stroke="white" d="M609.4,-72C617.39,-72 626.31,-72 634.82,-72"/>
<polygon fill="white" stroke="white" points="634.92,-75.5 644.92,-72 634.92,-68.5 634.92,-75.5"/>
</g>
<!-- node10 -->
<g id="node21" class="node">
<title>node10</title>
<polygon fill="yellow" stroke="black" points="735,-431 735,-533 789,-533 789,-431 735,-431"/>
<text text-anchor="middle" x="762" y="-519.4" font-family="Times,serif" font-size="12.00">value:</text>
<text text-anchor="middle" x="762" y="-506.4" font-family="Times,serif" font-size="12.00">None</text>
<polyline fill="none" stroke="black" points="735,-499 789,-499 "/>
<text text-anchor="middle" x="762" y="-485.4" font-family="Times,serif" font-size="12.00">prev:</text>
<text text-anchor="middle" x="762" y="-472.4" font-family="Times,serif" font-size="12.00">9</text>
<polyline fill="none" stroke="black" points="735,-465 789,-465 "/>
<text text-anchor="middle" x="762" y="-451.4" font-family="Times,serif" font-size="12.00">next:</text>
<text text-anchor="middle" x="762" y="-438.4" font-family="Times,serif" font-size="12.00">0</text>
</g>
<!-- node9&#45;&gt;node10 -->
<g id="edge18" class="edge">
<title>node9:next&#45;&gt;node10:next</title>
<path fill="none" stroke="black" d="M699,-448C711,-448 716.25,-448 724.88,-448"/>
<polygon fill="black" stroke="black" points="725,-451.5 735,-448 725,-444.5 725,-451.5"/>
</g>
<!-- index10 -->
<g id="node22" class="node">
<title>index10</title>
<polygon fill="none" stroke="black" points="789,-90 735,-90 735,-54 789,-54 789,-90"/>
<text text-anchor="middle" x="762" y="-68.9" font-family="Times,serif" font-size="12.00"> 10 </text>
</g>
<!-- index9&#45;&gt;index10 -->
<g id="edge10" class="edge">
<title>index9&#45;&gt;index10</title>
<path fill="none" stroke="white" d="M699.4,-72C707.39,-72 716.31,-72 724.82,-72"/>
<polygon fill="white" stroke="white" points="724.92,-75.5 734.92,-72 724.92,-68.5 724.92,-75.5"/>
</g>
</g>
</svg>
