<?xml version="1.0" encoding="UTF-8" standalone="no"?>
<!DOCTYPE svg PUBLIC "-//W3C//DTD SVG 1.1//EN"
 "http://www.w3.org/Graphics/SVG/1.1/DTD/svg11.dtd">
<!-- Generated by graphviz version 2.43.0 (0)
 -->
<!-- Title: G Pages: 1 -->
<svg width="832pt" height="526pt"
 viewBox="0.00 0.00 832.00 525.50" xmlns="http://www.w3.org/2000/svg" xmlns:xlink="http://www.w3.org/1999/xlink">
<g id="graph0" class="graph" transform="scale(1 1) rotate(0) translate(4 521.5)">
<title>G</title>
<polygon fill="white" stroke="transparent" points="-4,4 -4,-521.5 828,-521.5 828,4 -4,4"/>
<!-- node0 -->
<g id="node1" class="node">
<title>node0</title>
<polygon fill="lightgrey" stroke="lightgrey" points="54,-182 0,-182 0,-146 54,-146 54,-182"/>
<text text-anchor="middle" x="27" y="-160.9" font-family="Times,serif" font-size="12.00">node0</text>
</g>
<!-- index0 -->
<g id="node2" class="node">
<title>index0</title>
<polygon fill="none" stroke="black" points="54,-236 0,-236 0,-200 54,-200 54,-236"/>
<text text-anchor="middle" x="27" y="-214.9" font-family="Times,serif" font-size="12.00"> 0 </text>
</g>
<!-- index1 -->
<g id="node4" class="node">
<title>index1</title>
<polygon fill="none" stroke="black" points="144,-236 90,-236 90,-200 144,-200 144,-236"/>
<text text-anchor="middle" x="117" y="-214.9" font-family="Times,serif" font-size="12.00"> 1 </text>
</g>
<!-- index0&#45;&gt;index1 -->
<g id="edge1" class="edge">
<title>index0&#45;&gt;index1</title>
<path fill="none" stroke="white" d="M54.4,-218C62.39,-218 71.31,-218 79.82,-218"/>
<polygon fill="white" stroke="white" points="79.92,-221.5 89.92,-218 79.92,-214.5 79.92,-221.5"/>
</g>
<!-- node1 -->
<g id="node3" class="node">
<title>node1</title>
<polygon fill="pink" stroke="black" points="90,-369 90,-471 144,-471 144,-369 90,-369"/>
<text text-anchor="middle" x="117" y="-457.4" font-family="Times,serif" font-size="12.00">value:</text>
<text text-anchor="middle" x="117" y="-444.4" font-family="Times,serif" font-size="12.00">aboba</text>
<polyline fill="none" stroke="black" points="90,-437 144,-437 "/>
<text text-anchor="middle" x="117" y="-423.4" font-family="Times,serif" font-size="12.00">prev:</text>
<text text-anchor="middle" x="117" y="-410.4" font-family="Times,serif" font-size="12.00">3</text>
<polyline fill="none" stroke="black" points="90,-403 144,-403 "/>
<text text-anchor="middle" x="117" y="-389.4" font-family="Times,serif" font-size="12.00">next:</text>
<text text-anchor="middle" x="117" y="-376.4" font-family="Times,serif" font-size="12.00">4</text>
</g>
<!-- node4 -->
<g id="node9" class="node">
<title>node4</title>
<polygon fill="pink" stroke="black" points="180,-415 180,-517 234,-517 234,-415 180,-415"/>
<text text-anchor="middle" x="207" y="-503.4" font-family="Times,serif" font-size="12.00">value:</text>
<text text-anchor="middle" x="207" y="-490.4" font-family="Times,serif" font-size="12.00">last</text>
<polyline fill="none" stroke="black" points="180,-483 234,-483 "/>
<text text-anchor="middle" x="207" y="-469.4" font-family="Times,serif" font-size="12.00">prev:</text>
<text text-anchor="middle" x="207" y="-456.4" font-family="Times,serif" font-size="12.00">1</text>
<polyline fill="none" stroke="black" points="180,-449 234,-449 "/>
<text text-anchor="middle" x="207" y="-435.4" font-family="Times,serif" font-size="12.00">next:</text>
<text text-anchor="middle" x="207" y="-422.4" font-family="Times,serif" font-size="12.00">2</text>
</g>
<!-- node1&#45;&gt;node4 -->
<g id="edge11" class="edge">
<title>node1:next&#45;&gt;node4:next</title>
<path fill="none" stroke="black" d="M144,-386C165.7,-386 158.14,-418.14 170.23,-428.69"/>
<polygon fill="black" stroke="black" points="169.41,-432.11 180,-432 171.65,-425.48 169.41,-432.11"/>
</g>
<!-- index2 -->
<g id="node6" class="node">
<title>index2</title>
<polygon fill="none" stroke="black" points="341.5,-236 287.5,-236 287.5,-200 341.5,-200 341.5,-236"/>
<text text-anchor="middle" x="314.5" y="-214.9" font-family="Times,serif" font-size="12.00"> 2 </text>
</g>
<!-- index1&#45;&gt;index2 -->
<g id="edge2" class="edge">
<title>index1&#45;&gt;index2</title>
<path fill="none" stroke="white" d="M144.37,-218C178.57,-218 238.4,-218 276.97,-218"/>
<polygon fill="white" stroke="white" points="277.24,-221.5 287.24,-218 277.24,-214.5 277.24,-221.5"/>
</g>
<!-- node2 -->
<g id="node5" class="node">
<title>node2</title>
<polygon fill="lightblue" stroke="black" points="287.5,-415 287.5,-517 341.5,-517 341.5,-415 287.5,-415"/>
<text text-anchor="middle" x="314.5" y="-503.4" font-family="Times,serif" font-size="12.00">value:</text>
<text text-anchor="middle" x="314.5" y="-490.4" font-family="Times,serif" font-size="12.00">mem</text>
<polyline fill="none" stroke="black" points="287.5,-483 341.5,-483 "/>
<text text-anchor="middle" x="314.5" y="-469.4" font-family="Times,serif" font-size="12.00">prev:</text>
<text text-anchor="middle" x="314.5" y="-456.4" font-family="Times,serif" font-size="12.00">4</text>
<polyline fill="none" stroke="black" points="287.5,-449 341.5,-449 "/>
<text text-anchor="middle" x="314.5" y="-435.4" font-family="Times,serif" font-size="12.00">next:</text>
<text text-anchor="middle" x="314.5" y="-422.4" font-family="Times,serif" font-size="12.00">0</text>
</g>
<!-- index3 -->
<g id="node8" class="node">
<title>index3</title>
<polygon fill="none" stroke="black" points="456.5,-190 402.5,-190 402.5,-154 456.5,-154 456.5,-190"/>
<text text-anchor="middle" x="429.5" y="-168.9" font-family="Times,serif" font-size="12.00"> 3 </text>
</g>
<!-- index2&#45;&gt;index3 -->
<g id="edge3" class="edge">
<title>index2&#45;&gt;index3</title>
<path fill="none" stroke="white" d="M341.71,-207.33C356.97,-201.12 376.42,-193.2 393.03,-186.44"/>
<polygon fill="white" stroke="white" points="394.49,-189.62 402.43,-182.61 391.85,-183.14 394.49,-189.62"/>
</g>
<!-- tail -->
<g id="node24" class="node">
<title>tail</title>
<polygon fill="lightblue" stroke="lightblue" points="341.5,-182 287.5,-182 287.5,-146 341.5,-146 341.5,-182"/>
<text text-anchor="middle" x="314.5" y="-160.9" font-family="Times,serif" font-size="12.00">tail</text>
</g>
<!-- index2&#45;&gt;tail -->
<g id="edge20" class="edge">
<title>index2&#45;&gt;tail</title>
<path fill="none" stroke="black" d="M314.5,-199.79C314.5,-197.31 314.5,-194.83 314.5,-192.34"/>
<polygon fill="black" stroke="black" points="318,-192.14 314.5,-182.14 311,-192.14 318,-192.14"/>
</g>
<!-- node3 -->
<g id="node7" class="node">
<title>node3</title>
<polygon fill="pink" stroke="black" points="395,-255 395,-357 464,-357 464,-255 395,-255"/>
<text text-anchor="middle" x="429.5" y="-343.4" font-family="Times,serif" font-size="12.00">value:</text>
<text text-anchor="middle" x="429.5" y="-330.4" font-family="Times,serif" font-size="12.00">ahahaha</text>
<polyline fill="none" stroke="black" points="395,-323 464,-323 "/>
<text text-anchor="middle" x="429.5" y="-309.4" font-family="Times,serif" font-size="12.00">prev:</text>
<text text-anchor="middle" x="429.5" y="-296.4" font-family="Times,serif" font-size="12.00">5</text>
<polyline fill="none" stroke="black" points="395,-289 464,-289 "/>
<text text-anchor="middle" x="429.5" y="-275.4" font-family="Times,serif" font-size="12.00">next:</text>
<text text-anchor="middle" x="429.5" y="-262.4" font-family="Times,serif" font-size="12.00">1</text>
</g>
<!-- node3&#45;&gt;node1 -->
<g id="edge12" class="edge">
<title>node3:next&#45;&gt;node1:next</title>
<path fill="none" stroke="black" d="M395,-272C350.26,-272 394.64,-338.96 359,-366 285.3,-421.9 243.09,-388.62 154.2,-386.14"/>
<polygon fill="black" stroke="black" points="154.05,-382.64 144,-386 153.95,-389.64 154.05,-382.64"/>
</g>
<!-- index4 -->
<g id="node10" class="node">
<title>index4</title>
<polygon fill="none" stroke="black" points="234,-113 180,-113 180,-77 234,-77 234,-113"/>
<text text-anchor="middle" x="207" y="-91.9" font-family="Times,serif" font-size="12.00"> 4 </text>
</g>
<!-- index3&#45;&gt;index4 -->
<g id="edge4" class="edge">
<title>index3&#45;&gt;index4</title>
<path fill="none" stroke="white" d="M402.32,-157.29C389.53,-150.5 373.74,-142.7 359,-137 320.69,-122.19 275.07,-110.24 244.07,-102.93"/>
<polygon fill="white" stroke="white" points="244.68,-99.48 234.15,-100.63 243.1,-106.3 244.68,-99.48"/>
</g>
<!-- node4&#45;&gt;node2 -->
<g id="edge13" class="edge">
<title>node4:next&#45;&gt;node2:next</title>
<path fill="none" stroke="black" d="M234,-432C253.51,-432 260.78,-432 276.27,-432"/>
<polygon fill="black" stroke="black" points="276.5,-435.5 286.5,-432 276.5,-428.5 276.5,-435.5"/>
</g>
<!-- index5 -->
<g id="node12" class="node">
<title>index5</title>
<polygon fill="none" stroke="black" points="341.5,-90 287.5,-90 287.5,-54 341.5,-54 341.5,-90"/>
<text text-anchor="middle" x="314.5" y="-68.9" font-family="Times,serif" font-size="12.00"> 5 </text>
</g>
<!-- index4&#45;&gt;index5 -->
<g id="edge5" class="edge">
<title>index4&#45;&gt;index5</title>
<path fill="none" stroke="white" d="M234.08,-89.31C247.14,-86.47 263.16,-82.97 277.38,-79.87"/>
<polygon fill="white" stroke="white" points="278.33,-83.25 287.36,-77.7 276.84,-76.41 278.33,-83.25"/>
</g>
<!-- node5 -->
<g id="node11" class="node">
<title>node5</title>
<polygon fill="lightgreen" stroke="black" points="270,-255 270,-357 359,-357 359,-255 270,-255"/>
<text text-anchor="middle" x="314.5" y="-343.4" font-family="Times,serif" font-size="12.00">value:</text>
<text text-anchor="middle" x="314.5" y="-330.4" font-family="Times,serif" font-size="12.00">number one</text>
<polyline fill="none" stroke="black" points="270,-323 359,-323 "/>
<text text-anchor="middle" x="314.5" y="-309.4" font-family="Times,serif" font-size="12.00">prev:</text>
<text text-anchor="middle" x="314.5" y="-296.4" font-family="Times,serif" font-size="12.00">0</text>
<polyline fill="none" stroke="black" points="270,-289 359,-289 "/>
<text text-anchor="middle" x="314.5" y="-275.4" font-family="Times,serif" font-size="12.00">next:</text>
<text text-anchor="middle" x="314.5" y="-262.4" font-family="Times,serif" font-size="12.00">3</text>
</g>
<!-- node5&#45;&gt;node3 -->
<g id="edge14" class="edge">
<title>node5:next&#45;&gt;node3:next</title>
<path fill="none" stroke="black" d="M359,-272C371,-272 376.25,-272 384.88,-272"/>
<polygon fill="black" stroke="black" points="385,-275.5 395,-272 385,-268.5 385,-275.5"/>
</g>
<!-- index6 -->
<g id="node14" class="node">
<title>index6</title>
<polygon fill="none" stroke="black" points="456.5,-90 402.5,-90 402.5,-54 456.5,-54 456.5,-90"/>
<text text-anchor="middle" x="429.5" y="-68.9" font-family="Times,serif" font-size="12.00"> 6 </text>
</g>
<!-- index5&#45;&gt;index6 -->
<g id="edge6" class="edge">
<title>index5&#45;&gt;index6</title>
<path fill="none" stroke="white" d="M341.71,-72C356.68,-72 375.69,-72 392.1,-72"/>
<polygon fill="white" stroke="white" points="392.43,-75.5 402.43,-72 392.43,-68.5 392.43,-75.5"/>
</g>
<!-- head -->
<g id="node23" class="node">
<title>head</title>
<polygon fill="lightgreen" stroke="lightgreen" points="341.5,-36 287.5,-36 287.5,0 341.5,0 341.5,-36"/>
<text text-anchor="middle" x="314.5" y="-14.9" font-family="Times,serif" font-size="12.00">head</text>
</g>
<!-- index5&#45;&gt;head -->
<g id="edge19" class="edge">
<title>index5&#45;&gt;head</title>
<path fill="none" stroke="black" d="M314.5,-53.79C314.5,-51.31 314.5,-48.83 314.5,-46.34"/>
<polygon fill="black" stroke="black" points="318,-46.14 314.5,-36.14 311,-46.14 318,-46.14"/>
</g>
<!-- node6 -->
<g id="node13" class="node">
<title>node6</title>
<polygon fill="yellow" stroke="black" points="402.5,-376 402.5,-478 456.5,-478 456.5,-376 402.5,-376"/>
<text text-anchor="middle" x="429.5" y="-464.4" font-family="Times,serif" font-size="12.00">value:</text>
<text text-anchor="middle" x="429.5" y="-451.4" font-family="Times,serif" font-size="12.00">None</text>
<polyline fill="none" stroke="black" points="402.5,-444 456.5,-444 "/>
<text text-anchor="middle" x="429.5" y="-430.4" font-family="Times,serif" font-size="12.00">prev:</text>
<text text-anchor="middle" x="429.5" y="-417.4" font-family="Times,serif" font-size="12.00">5</text>
<polyline fill="none" stroke="black" points="402.5,-410 456.5,-410 "/>
<text text-anchor="middle" x="429.5" y="-396.4" font-family="Times,serif" font-size="12.00">next:</text>
<text text-anchor="middle" x="429.5" y="-383.4" font-family="Times,serif" font-size="12.00">7</text>
</g>
<!-- node7 -->
<g id="node15" class="node">
<title>node7</title>
<polygon fill="yellow" stroke="black" points="500,-376 500,-478 554,-478 554,-376 500,-376"/>
<text text-anchor="middle" x="527" y="-464.4" font-family="Times,serif" font-size="12.00">value:</text>
<text text-anchor="middle" x="527" y="-451.4" font-family="Times,serif" font-size="12.00">None</text>
<polyline fill="none" stroke="black" points="500,-444 554,-444 "/>
<text text-anchor="middle" x="527" y="-430.4" font-family="Times,serif" font-size="12.00">prev:</text>
<text text-anchor="middle" x="527" y="-417.4" font-family="Times,serif" font-size="12.00">6</text>
<polyline fill="none" stroke="black" points="500,-410 554,-410 "/>
<text text-anchor="middle" x="527" y="-396.4" font-family="Times,serif" font-size="12.00">next:</text>
<text text-anchor="middle" x="527" y="-383.4" font-family="Times,serif" font-size="12.00">8</text>
</g>
<!-- node6&#45;&gt;node7 -->
<g id="edge15" class="edge">
<title>node6:next&#45;&gt;node7:next</title>
<path fill="none" stroke="black" d="M457.5,-393C472.4,-393 478.49,-393 489.67,-393"/>
<polygon fill="black" stroke="black" points="490,-396.5 500,-393 490,-389.5 490,-396.5"/>
</g>
<!-- index7 -->
<g id="node16" class="node">
<title>index7</title>
<polygon fill="none" stroke="black" points="554,-90 500,-90 500,-54 554,-54 554,-90"/>
<text text-anchor="middle" x="527" y="-68.9" font-family="Times,serif" font-size="12.00"> 7 </text>
</g>
<!-- index6&#45;&gt;index7 -->
<g id="edge7" class="edge">
<title>index6&#45;&gt;index7</title>
<path fill="none" stroke="white" d="M456.6,-72C466.81,-72 478.7,-72 489.72,-72"/>
<polygon fill="white" stroke="white" points="489.94,-75.5 499.94,-72 489.94,-68.5 489.94,-75.5"/>
</g>
<!-- free -->
<g id="node25" class="node">
<title>free</title>
<polygon fill="yellow" stroke="yellow" points="456.5,-36 402.5,-36 402.5,0 456.5,0 456.5,-36"/>
<text text-anchor="middle" x="429.5" y="-14.9" font-family="Times,serif" font-size="12.00">free</text>
</g>
<!-- index6&#45;&gt;free -->
<g id="edge21" class="edge">
<title>index6&#45;&gt;free</title>
<path fill="none" stroke="black" d="M429.5,-53.79C429.5,-51.31 429.5,-48.83 429.5,-46.34"/>
<polygon fill="black" stroke="black" points="433,-46.14 429.5,-36.14 426,-46.14 433,-46.14"/>
</g>
<!-- node8 -->
<g id="node17" class="node">
<title>node8</title>
<polygon fill="yellow" stroke="black" points="590,-376 590,-478 644,-478 644,-376 590,-376"/>
<text text-anchor="middle" x="617" y="-464.4" font-family="Times,serif" font-size="12.00">value:</text>
<text text-anchor="middle" x="617" y="-451.4" font-family="Times,serif" font-size="12.00">None</text>
<polyline fill="none" stroke="black" points="590,-444 644,-444 "/>
<text text-anchor="middle" x="617" y="-430.4" font-family="Times,serif" font-size="12.00">prev:</text>
<text text-anchor="middle" x="617" y="-417.4" font-family="Times,serif" font-size="12.00">7</text>
<polyline fill="none" stroke="black" points="590,-410 644,-410 "/>
<text text-anchor="middle" x="617" y="-396.4" font-family="Times,serif" font-size="12.00">next:</text>
<text text-anchor="middle" x="617" y="-383.4" font-family="Times,serif" font-size="12.00">9</text>
</g>
<!-- node7&#45;&gt;node8 -->
<g id="edge16" class="edge">
<title>node7:next&#45;&gt;node8:next</title>
<path fill="none" stroke="black" d="M554,-393C566,-393 571.25,-393 579.88,-393"/>
<polygon fill="black" stroke="black" points="580,-396.5 590,-393 580,-389.5 580,-396.5"/>
</g>
<!-- index8 -->
<g id="node18" class="node">
<title>index8</title>
<polygon fill="none" stroke="black" points="644,-90 590,-90 590,-54 644,-54 644,-90"/>
<text text-anchor="middle" x="617" y="-68.9" font-family="Times,serif" font-size="12.00"> 8 </text>
</g>
<!-- index7&#45;&gt;index8 -->
<g id="edge8" class="edge">
<title>index7&#45;&gt;index8</title>
<path fill="none" stroke="white" d="M554.4,-72C562.39,-72 571.31,-72 579.82,-72"/>
<polygon fill="white" stroke="white" points="579.92,-75.5 589.92,-72 579.92,-68.5 579.92,-75.5"/>
</g>
<!-- node9 -->
<g id="node19" class="node">
<title>node9</title>
<polygon fill="yellow" stroke="black" points="680,-376 680,-478 734,-478 734,-376 680,-376"/>
<text text-anchor="middle" x="707" y="-464.4" font-family="Times,serif" font-size="12.00">value:</text>
<text text-anchor="middle" x="707" y="-451.4" font-family="Times,serif" font-size="12.00">None</text>
<polyline fill="none" stroke="black" points="680,-444 734,-444 "/>
<text text-anchor="middle" x="707" y="-430.4" font-family="Times,serif" font-size="12.00">prev:</text>
<text text-anchor="middle" x="707" y="-417.4" font-family="Times,serif" font-size="12.00">8</text>
<polyline fill="none" stroke="black" points="680,-410 734,-410 "/>
<text text-anchor="middle" x="707" y="-396.4" font-family="Times,serif" font-size="12.00">next:</text>
<text text-anchor="middle" x="707" y="-383.4" font-family="Times,serif" font-size="12.00">10</text>
</g>
<!-- node8&#45;&gt;node9 -->
<g id="edge17" class="edge">
<title>node8:next&#45;&gt;node9:next</title>
<path fill="none" stroke="black" d="M644,-393C656,-393 661.25,-393 669.88,-393"/>
<polygon fill="black" stroke="black" points="670,-396.5 680,-393 670,-389.5 670,-396.5"/>
</g>
<!-- index9 -->
<g id="node20" class="node">
<title>index9</title>
<polygon fill="none" stroke="black" points="734,-90 680,-90 680,-54 734,-54 734,-90"/>
<text text-anchor="middle" x="707" y="-68.9" font-family="Times,serif" font-size="12.00"> 9 </text>
</g>
<!-- index8&#45;&gt;index9 -->
<g id="edge9" class="edge">
<title>index8&#45;&gt;index9</title>
<path fill="none" stroke="white" d="M644.4,-72C652.39,-72 661.31,-72 669.82,-72"/>
<polygon fill="white" stroke="white" points="669.92,-75.5 679.92,-72 669.92,-68.5 669.92,-75.5"/>
</g>
<!-- node10 -->
<g id="node21" class="node">
<title>node10</title>
<polygon fill="yellow" stroke="black" points="770,-376 770,-478 824,-478 824,-376 770,-376"/>
<text text-anchor="middle" x="797" y="-464.4" font-family="Times,serif" font-size="12.00">value:</text>
<text text-anchor="middle" x="797" y="-451.4" font-family="Times,serif" font-size="12.00">None</text>
<polyline fill="none" stroke="black" points="770,-444 824,-444 "/>
<text text-anchor="middle" x="797" y="-430.4" font-family="Times,serif" font-size="12.00">prev:</text>
<text text-anchor="middle" x="797" y="-417.4" font-family="Times,serif" font-size="12.00">9</text>
<polyline fill="none" stroke="black" points="770,-410 824,-410 "/>
<text text-anchor="middle" x="797" y="-396.4" font-family="Times,serif" font-size="12.00">next:</text>
<text text-anchor="middle" x="797" y="-383.4" font-family="Times,serif" font-size="12.00">0</text>
</g>
<!-- node9&#45;&gt;node10 -->
<g id="edge18" class="edge">
<title>node9:next&#45;&gt;node10:next</title>
<path fill="none" stroke="black" d="M734,-393C746,-393 751.25,-393 759.88,-393"/>
<polygon fill="black" stroke="black" points="760,-396.5 770,-393 760,-389.5 760,-396.5"/>
</g>
<!-- index10 -->
<g id="node22" class="node">
<title>index10</title>
<polygon fill="none" stroke="black" points="824,-90 770,-90 770,-54 824,-54 824,-90"/>
<text text-anchor="middle" x="797" y="-68.9" font-family="Times,serif" font-size="12.00"> 10 </text>
</g>
<!-- index9&#45;&gt;index10 -->
<g id="edge10" class="edge">
<title>index9&#45;&gt;index10</title>
<path fill="none" stroke="white" d="M734.4,-72C742.39,-72 751.31,-72 759.82,-72"/>
<polygon fill="white" stroke="white" points="759.92,-75.5 769.92,-72 759.92,-68.5 759.92,-75.5"/>
</g>
</g>
</svg>
