<?xml version="1.0" encoding="UTF-8" standalone="no"?>
<!DOCTYPE svg PUBLIC "-//W3C//DTD SVG 1.1//EN"
 "http://www.w3.org/Graphics/SVG/1.1/DTD/svg11.dtd">
<!-- Generated by graphviz version 2.43.0 (0)
 -->
<!-- Title: G Pages: 1 -->
<svg width="977pt" height="266pt"
 viewBox="0.00 0.00 977.00 265.50" xmlns="http://www.w3.org/2000/svg" xmlns:xlink="http://www.w3.org/1999/xlink">
<g id="graph0" class="graph" transform="scale(1 1) rotate(0) translate(4 261.5)">
<title>G</title>
<polygon fill="white" stroke="transparent" points="-4,4 -4,-261.5 973,-261.5 973,4 -4,4"/>
<!-- node0 -->
<g id="node1" class="node">
<title>node0</title>
<polygon fill="lightgrey" stroke="lightgrey" points="54,-36 0,-36 0,0 54,0 54,-36"/>
<text text-anchor="middle" x="27" y="-14.9" font-family="Times,serif" font-size="12.00">node0</text>
</g>
<!-- index0 -->
<g id="node2" class="node">
<title>index0</title>
<polygon fill="none" stroke="black" points="54,-90 0,-90 0,-54 54,-54 54,-90"/>
<text text-anchor="middle" x="27" y="-68.9" font-family="Times,serif" font-size="12.00"> 0 </text>
</g>
<!-- index1 -->
<g id="node4" class="node">
<title>index1</title>
<polygon fill="none" stroke="black" points="144,-90 90,-90 90,-54 144,-54 144,-90"/>
<text text-anchor="middle" x="117" y="-68.9" font-family="Times,serif" font-size="12.00"> 1 </text>
</g>
<!-- index0&#45;&gt;index1 -->
<g id="edge1" class="edge">
<title>index0&#45;&gt;index1</title>
<path fill="none" stroke="white" d="M54.4,-72C62.39,-72 71.31,-72 79.82,-72"/>
<polygon fill="white" stroke="white" points="79.92,-75.5 89.92,-72 79.92,-68.5 79.92,-75.5"/>
</g>
<!-- node1 -->
<g id="node3" class="node">
<title>node1</title>
<polygon fill="pink" stroke="black" points="90,-109 90,-211 144,-211 144,-109 90,-109"/>
<text text-anchor="middle" x="117" y="-197.4" font-family="Times,serif" font-size="12.00">value:</text>
<text text-anchor="middle" x="117" y="-184.4" font-family="Times,serif" font-size="12.00">aboba</text>
<polyline fill="none" stroke="black" points="90,-177 144,-177 "/>
<text text-anchor="middle" x="117" y="-163.4" font-family="Times,serif" font-size="12.00">prev:</text>
<text text-anchor="middle" x="117" y="-150.4" font-family="Times,serif" font-size="12.00">3</text>
<polyline fill="none" stroke="black" points="90,-143 144,-143 "/>
<text text-anchor="middle" x="117" y="-129.4" font-family="Times,serif" font-size="12.00">next:</text>
<text text-anchor="middle" x="117" y="-116.4" font-family="Times,serif" font-size="12.00">2</text>
</g>
<!-- node2 -->
<g id="node5" class="node">
<title>node2</title>
<polygon fill="lightblue" stroke="black" points="180,-155 180,-257 234,-257 234,-155 180,-155"/>
<text text-anchor="middle" x="207" y="-243.4" font-family="Times,serif" font-size="12.00">value:</text>
<text text-anchor="middle" x="207" y="-230.4" font-family="Times,serif" font-size="12.00">mem</text>
<polyline fill="none" stroke="black" points="180,-223 234,-223 "/>
<text text-anchor="middle" x="207" y="-209.4" font-family="Times,serif" font-size="12.00">prev:</text>
<text text-anchor="middle" x="207" y="-196.4" font-family="Times,serif" font-size="12.00">1</text>
<polyline fill="none" stroke="black" points="180,-189 234,-189 "/>
<text text-anchor="middle" x="207" y="-175.4" font-family="Times,serif" font-size="12.00">next:</text>
<text text-anchor="middle" x="207" y="-162.4" font-family="Times,serif" font-size="12.00">0</text>
</g>
<!-- node1&#45;&gt;node2 -->
<g id="edge11" class="edge">
<title>node1:next&#45;&gt;node2:next</title>
<path fill="none" stroke="black" d="M144,-126C165.7,-126 158.14,-158.14 170.23,-168.69"/>
<polygon fill="black" stroke="black" points="169.41,-172.11 180,-172 171.65,-165.48 169.41,-172.11"/>
</g>
<!-- index2 -->
<g id="node6" class="node">
<title>index2</title>
<polygon fill="none" stroke="black" points="234,-90 180,-90 180,-54 234,-54 234,-90"/>
<text text-anchor="middle" x="207" y="-68.9" font-family="Times,serif" font-size="12.00"> 2 </text>
</g>
<!-- index1&#45;&gt;index2 -->
<g id="edge2" class="edge">
<title>index1&#45;&gt;index2</title>
<path fill="none" stroke="white" d="M144.4,-72C152.39,-72 161.31,-72 169.82,-72"/>
<polygon fill="white" stroke="white" points="169.92,-75.5 179.92,-72 169.92,-68.5 169.92,-75.5"/>
</g>
<!-- index3 -->
<g id="node8" class="node">
<title>index3</title>
<polygon fill="none" stroke="black" points="331.5,-90 277.5,-90 277.5,-54 331.5,-54 331.5,-90"/>
<text text-anchor="middle" x="304.5" y="-68.9" font-family="Times,serif" font-size="12.00"> 3 </text>
</g>
<!-- index2&#45;&gt;index3 -->
<g id="edge3" class="edge">
<title>index2&#45;&gt;index3</title>
<path fill="none" stroke="white" d="M234.1,-72C244.31,-72 256.2,-72 267.22,-72"/>
<polygon fill="white" stroke="white" points="267.44,-75.5 277.44,-72 267.44,-68.5 267.44,-75.5"/>
</g>
<!-- tail -->
<g id="node24" class="node">
<title>tail</title>
<polygon fill="lightblue" stroke="lightblue" points="234,-36 180,-36 180,0 234,0 234,-36"/>
<text text-anchor="middle" x="207" y="-14.9" font-family="Times,serif" font-size="12.00">tail</text>
</g>
<!-- index2&#45;&gt;tail -->
<g id="edge20" class="edge">
<title>index2&#45;&gt;tail</title>
<path fill="none" stroke="black" d="M207,-53.79C207,-51.31 207,-48.83 207,-46.34"/>
<polygon fill="black" stroke="black" points="210.5,-46.14 207,-36.14 203.5,-46.14 210.5,-46.14"/>
</g>
<!-- node3 -->
<g id="node7" class="node">
<title>node3</title>
<polygon fill="lightgreen" stroke="black" points="270,-109 270,-211 339,-211 339,-109 270,-109"/>
<text text-anchor="middle" x="304.5" y="-197.4" font-family="Times,serif" font-size="12.00">value:</text>
<text text-anchor="middle" x="304.5" y="-184.4" font-family="Times,serif" font-size="12.00">ahahaha</text>
<polyline fill="none" stroke="black" points="270,-177 339,-177 "/>
<text text-anchor="middle" x="304.5" y="-163.4" font-family="Times,serif" font-size="12.00">prev:</text>
<text text-anchor="middle" x="304.5" y="-150.4" font-family="Times,serif" font-size="12.00">0</text>
<polyline fill="none" stroke="black" points="270,-143 339,-143 "/>
<text text-anchor="middle" x="304.5" y="-129.4" font-family="Times,serif" font-size="12.00">next:</text>
<text text-anchor="middle" x="304.5" y="-116.4" font-family="Times,serif" font-size="12.00">1</text>
</g>
<!-- node3&#45;&gt;node1 -->
<g id="edge12" class="edge">
<title>node3:next&#45;&gt;node1:next</title>
<path fill="none" stroke="black" d="M270,-126C217.5,-126 201.91,-126 154.03,-126"/>
<polygon fill="black" stroke="black" points="154,-122.5 144,-126 154,-129.5 154,-122.5"/>
</g>
<!-- index4 -->
<g id="node10" class="node">
<title>index4</title>
<polygon fill="none" stroke="black" points="429,-90 375,-90 375,-54 429,-54 429,-90"/>
<text text-anchor="middle" x="402" y="-68.9" font-family="Times,serif" font-size="12.00"> 4 </text>
</g>
<!-- index3&#45;&gt;index4 -->
<g id="edge4" class="edge">
<title>index3&#45;&gt;index4</title>
<path fill="none" stroke="white" d="M331.6,-72C341.81,-72 353.7,-72 364.72,-72"/>
<polygon fill="white" stroke="white" points="364.94,-75.5 374.94,-72 364.94,-68.5 364.94,-75.5"/>
</g>
<!-- head -->
<g id="node23" class="node">
<title>head</title>
<polygon fill="lightgreen" stroke="lightgreen" points="331.5,-36 277.5,-36 277.5,0 331.5,0 331.5,-36"/>
<text text-anchor="middle" x="304.5" y="-14.9" font-family="Times,serif" font-size="12.00">head</text>
</g>
<!-- index3&#45;&gt;head -->
<g id="edge19" class="edge">
<title>index3&#45;&gt;head</title>
<path fill="none" stroke="black" d="M304.5,-53.79C304.5,-51.31 304.5,-48.83 304.5,-46.34"/>
<polygon fill="black" stroke="black" points="308,-46.14 304.5,-36.14 301,-46.14 308,-46.14"/>
</g>
<!-- node4 -->
<g id="node9" class="node">
<title>node4</title>
<polygon fill="yellow" stroke="black" points="375,-109 375,-211 429,-211 429,-109 375,-109"/>
<text text-anchor="middle" x="402" y="-197.4" font-family="Times,serif" font-size="12.00">value:</text>
<text text-anchor="middle" x="402" y="-184.4" font-family="Times,serif" font-size="12.00">None</text>
<polyline fill="none" stroke="black" points="375,-177 429,-177 "/>
<text text-anchor="middle" x="402" y="-163.4" font-family="Times,serif" font-size="12.00">prev:</text>
<text text-anchor="middle" x="402" y="-150.4" font-family="Times,serif" font-size="12.00">3</text>
<polyline fill="none" stroke="black" points="375,-143 429,-143 "/>
<text text-anchor="middle" x="402" y="-129.4" font-family="Times,serif" font-size="12.00">next:</text>
<text text-anchor="middle" x="402" y="-116.4" font-family="Times,serif" font-size="12.00">5</text>
</g>
<!-- node5 -->
<g id="node11" class="node">
<title>node5</title>
<polygon fill="yellow" stroke="black" points="465,-109 465,-211 519,-211 519,-109 465,-109"/>
<text text-anchor="middle" x="492" y="-197.4" font-family="Times,serif" font-size="12.00">value:</text>
<text text-anchor="middle" x="492" y="-184.4" font-family="Times,serif" font-size="12.00">None</text>
<polyline fill="none" stroke="black" points="465,-177 519,-177 "/>
<text text-anchor="middle" x="492" y="-163.4" font-family="Times,serif" font-size="12.00">prev:</text>
<text text-anchor="middle" x="492" y="-150.4" font-family="Times,serif" font-size="12.00">4</text>
<polyline fill="none" stroke="black" points="465,-143 519,-143 "/>
<text text-anchor="middle" x="492" y="-129.4" font-family="Times,serif" font-size="12.00">next:</text>
<text text-anchor="middle" x="492" y="-116.4" font-family="Times,serif" font-size="12.00">6</text>
</g>
<!-- node4&#45;&gt;node5 -->
<g id="edge13" class="edge">
<title>node4:next&#45;&gt;node5:next</title>
<path fill="none" stroke="black" d="M429,-126C441,-126 446.25,-126 454.88,-126"/>
<polygon fill="black" stroke="black" points="455,-129.5 465,-126 455,-122.5 455,-129.5"/>
</g>
<!-- index5 -->
<g id="node12" class="node">
<title>index5</title>
<polygon fill="none" stroke="black" points="519,-90 465,-90 465,-54 519,-54 519,-90"/>
<text text-anchor="middle" x="492" y="-68.9" font-family="Times,serif" font-size="12.00"> 5 </text>
</g>
<!-- index4&#45;&gt;index5 -->
<g id="edge5" class="edge">
<title>index4&#45;&gt;index5</title>
<path fill="none" stroke="white" d="M429.4,-72C437.39,-72 446.31,-72 454.82,-72"/>
<polygon fill="white" stroke="white" points="454.92,-75.5 464.92,-72 454.92,-68.5 454.92,-75.5"/>
</g>
<!-- free -->
<g id="node25" class="node">
<title>free</title>
<polygon fill="yellow" stroke="yellow" points="429,-36 375,-36 375,0 429,0 429,-36"/>
<text text-anchor="middle" x="402" y="-14.9" font-family="Times,serif" font-size="12.00">free</text>
</g>
<!-- index4&#45;&gt;free -->
<g id="edge21" class="edge">
<title>index4&#45;&gt;free</title>
<path fill="none" stroke="black" d="M402,-53.79C402,-51.31 402,-48.83 402,-46.34"/>
<polygon fill="black" stroke="black" points="405.5,-46.14 402,-36.14 398.5,-46.14 405.5,-46.14"/>
</g>
<!-- node6 -->
<g id="node13" class="node">
<title>node6</title>
<polygon fill="yellow" stroke="black" points="555,-109 555,-211 609,-211 609,-109 555,-109"/>
<text text-anchor="middle" x="582" y="-197.4" font-family="Times,serif" font-size="12.00">value:</text>
<text text-anchor="middle" x="582" y="-184.4" font-family="Times,serif" font-size="12.00">None</text>
<polyline fill="none" stroke="black" points="555,-177 609,-177 "/>
<text text-anchor="middle" x="582" y="-163.4" font-family="Times,serif" font-size="12.00">prev:</text>
<text text-anchor="middle" x="582" y="-150.4" font-family="Times,serif" font-size="12.00">5</text>
<polyline fill="none" stroke="black" points="555,-143 609,-143 "/>
<text text-anchor="middle" x="582" y="-129.4" font-family="Times,serif" font-size="12.00">next:</text>
<text text-anchor="middle" x="582" y="-116.4" font-family="Times,serif" font-size="12.00">7</text>
</g>
<!-- node5&#45;&gt;node6 -->
<g id="edge14" class="edge">
<title>node5:next&#45;&gt;node6:next</title>
<path fill="none" stroke="black" d="M519,-126C531,-126 536.25,-126 544.88,-126"/>
<polygon fill="black" stroke="black" points="545,-129.5 555,-126 545,-122.5 545,-129.5"/>
</g>
<!-- index6 -->
<g id="node14" class="node">
<title>index6</title>
<polygon fill="none" stroke="black" points="609,-90 555,-90 555,-54 609,-54 609,-90"/>
<text text-anchor="middle" x="582" y="-68.9" font-family="Times,serif" font-size="12.00"> 6 </text>
</g>
<!-- index5&#45;&gt;index6 -->
<g id="edge6" class="edge">
<title>index5&#45;&gt;index6</title>
<path fill="none" stroke="white" d="M519.4,-72C527.39,-72 536.31,-72 544.82,-72"/>
<polygon fill="white" stroke="white" points="544.92,-75.5 554.92,-72 544.92,-68.5 544.92,-75.5"/>
</g>
<!-- node7 -->
<g id="node15" class="node">
<title>node7</title>
<polygon fill="yellow" stroke="black" points="645,-109 645,-211 699,-211 699,-109 645,-109"/>
<text text-anchor="middle" x="672" y="-197.4" font-family="Times,serif" font-size="12.00">value:</text>
<text text-anchor="middle" x="672" y="-184.4" font-family="Times,serif" font-size="12.00">None</text>
<polyline fill="none" stroke="black" points="645,-177 699,-177 "/>
<text text-anchor="middle" x="672" y="-163.4" font-family="Times,serif" font-size="12.00">prev:</text>
<text text-anchor="middle" x="672" y="-150.4" font-family="Times,serif" font-size="12.00">6</text>
<polyline fill="none" stroke="black" points="645,-143 699,-143 "/>
<text text-anchor="middle" x="672" y="-129.4" font-family="Times,serif" font-size="12.00">next:</text>
<text text-anchor="middle" x="672" y="-116.4" font-family="Times,serif" font-size="12.00">8</text>
</g>
<!-- node6&#45;&gt;node7 -->
<g id="edge15" class="edge">
<title>node6:next&#45;&gt;node7:next</title>
<path fill="none" stroke="black" d="M609,-126C621,-126 626.25,-126 634.88,-126"/>
<polygon fill="black" stroke="black" points="635,-129.5 645,-126 635,-122.5 635,-129.5"/>
</g>
<!-- index7 -->
<g id="node16" class="node">
<title>index7</title>
<polygon fill="none" stroke="black" points="699,-90 645,-90 645,-54 699,-54 699,-90"/>
<text text-anchor="middle" x="672" y="-68.9" font-family="Times,serif" font-size="12.00"> 7 </text>
</g>
<!-- index6&#45;&gt;index7 -->
<g id="edge7" class="edge">
<title>index6&#45;&gt;index7</title>
<path fill="none" stroke="white" d="M609.4,-72C617.39,-72 626.31,-72 634.82,-72"/>
<polygon fill="white" stroke="white" points="634.92,-75.5 644.92,-72 634.92,-68.5 634.92,-75.5"/>
</g>
<!-- node8 -->
<g id="node17" class="node">
<title>node8</title>
<polygon fill="yellow" stroke="black" points="735,-109 735,-211 789,-211 789,-109 735,-109"/>
<text text-anchor="middle" x="762" y="-197.4" font-family="Times,serif" font-size="12.00">value:</text>
<text text-anchor="middle" x="762" y="-184.4" font-family="Times,serif" font-size="12.00">None</text>
<polyline fill="none" stroke="black" points="735,-177 789,-177 "/>
<text text-anchor="middle" x="762" y="-163.4" font-family="Times,serif" font-size="12.00">prev:</text>
<text text-anchor="middle" x="762" y="-150.4" font-family="Times,serif" font-size="12.00">7</text>
<polyline fill="none" stroke="black" points="735,-143 789,-143 "/>
<text text-anchor="middle" x="762" y="-129.4" font-family="Times,serif" font-size="12.00">next:</text>
<text text-anchor="middle" x="762" y="-116.4" font-family="Times,serif" font-size="12.00">9</text>
</g>
<!-- node7&#45;&gt;node8 -->
<g id="edge16" class="edge">
<title>node7:next&#45;&gt;node8:next</title>
<path fill="none" stroke="black" d="M699,-126C711,-126 716.25,-126 724.88,-126"/>
<polygon fill="black" stroke="black" points="725,-129.5 735,-126 725,-122.5 725,-129.5"/>
</g>
<!-- index8 -->
<g id="node18" class="node">
<title>index8</title>
<polygon fill="none" stroke="black" points="789,-90 735,-90 735,-54 789,-54 789,-90"/>
<text text-anchor="middle" x="762" y="-68.9" font-family="Times,serif" font-size="12.00"> 8 </text>
</g>
<!-- index7&#45;&gt;index8 -->
<g id="edge8" class="edge">
<title>index7&#45;&gt;index8</title>
<path fill="none" stroke="white" d="M699.4,-72C707.39,-72 716.31,-72 724.82,-72"/>
<polygon fill="white" stroke="white" points="724.92,-75.5 734.92,-72 724.92,-68.5 724.92,-75.5"/>
</g>
<!-- node9 -->
<g id="node19" class="node">
<title>node9</title>
<polygon fill="yellow" stroke="black" points="825,-109 825,-211 879,-211 879,-109 825,-109"/>
<text text-anchor="middle" x="852" y="-197.4" font-family="Times,serif" font-size="12.00">value:</text>
<text text-anchor="middle" x="852" y="-184.4" font-family="Times,serif" font-size="12.00">None</text>
<polyline fill="none" stroke="black" points="825,-177 879,-177 "/>
<text text-anchor="middle" x="852" y="-163.4" font-family="Times,serif" font-size="12.00">prev:</text>
<text text-anchor="middle" x="852" y="-150.4" font-family="Times,serif" font-size="12.00">8</text>
<polyline fill="none" stroke="black" points="825,-143 879,-143 "/>
<text text-anchor="middle" x="852" y="-129.4" font-family="Times,serif" font-size="12.00">next:</text>
<text text-anchor="middle" x="852" y="-116.4" font-family="Times,serif" font-size="12.00">10</text>
</g>
<!-- node8&#45;&gt;node9 -->
<g id="edge17" class="edge">
<title>node8:next&#45;&gt;node9:next</title>
<path fill="none" stroke="black" d="M789,-126C801,-126 806.25,-126 814.88,-126"/>
<polygon fill="black" stroke="black" points="815,-129.5 825,-126 815,-122.5 815,-129.5"/>
</g>
<!-- index9 -->
<g id="node20" class="node">
<title>index9</title>
<polygon fill="none" stroke="black" points="879,-90 825,-90 825,-54 879,-54 879,-90"/>
<text text-anchor="middle" x="852" y="-68.9" font-family="Times,serif" font-size="12.00"> 9 </text>
</g>
<!-- index8&#45;&gt;index9 -->
<g id="edge9" class="edge">
<title>index8&#45;&gt;index9</title>
<path fill="none" stroke="white" d="M789.4,-72C797.39,-72 806.31,-72 814.82,-72"/>
<polygon fill="white" stroke="white" points="814.92,-75.5 824.92,-72 814.92,-68.5 814.92,-75.5"/>
</g>
<!-- node10 -->
<g id="node21" class="node">
<title>node10</title>
<polygon fill="yellow" stroke="black" points="915,-109 915,-211 969,-211 969,-109 915,-109"/>
<text text-anchor="middle" x="942" y="-197.4" font-family="Times,serif" font-size="12.00">value:</text>
<text text-anchor="middle" x="942" y="-184.4" font-family="Times,serif" font-size="12.00">None</text>
<polyline fill="none" stroke="black" points="915,-177 969,-177 "/>
<text text-anchor="middle" x="942" y="-163.4" font-family="Times,serif" font-size="12.00">prev:</text>
<text text-anchor="middle" x="942" y="-150.4" font-family="Times,serif" font-size="12.00">9</text>
<polyline fill="none" stroke="black" points="915,-143 969,-143 "/>
<text text-anchor="middle" x="942" y="-129.4" font-family="Times,serif" font-size="12.00">next:</text>
<text text-anchor="middle" x="942" y="-116.4" font-family="Times,serif" font-size="12.00">0</text>
</g>
<!-- node9&#45;&gt;node10 -->
<g id="edge18" class="edge">
<title>node9:next&#45;&gt;node10:next</title>
<path fill="none" stroke="black" d="M879,-126C891,-126 896.25,-126 904.88,-126"/>
<polygon fill="black" stroke="black" points="905,-129.5 915,-126 905,-122.5 905,-129.5"/>
</g>
<!-- index10 -->
<g id="node22" class="node">
<title>index10</title>
<polygon fill="none" stroke="black" points="969,-90 915,-90 915,-54 969,-54 969,-90"/>
<text text-anchor="middle" x="942" y="-68.9" font-family="Times,serif" font-size="12.00"> 10 </text>
</g>
<!-- index9&#45;&gt;index10 -->
<g id="edge10" class="edge">
<title>index9&#45;&gt;index10</title>
<path fill="none" stroke="white" d="M879.4,-72C887.39,-72 896.31,-72 904.82,-72"/>
<polygon fill="white" stroke="white" points="904.92,-75.5 914.92,-72 904.92,-68.5 904.92,-75.5"/>
</g>
</g>
</svg>
