<?xml version="1.0" encoding="UTF-8" standalone="no"?>
<!DOCTYPE svg PUBLIC "-//W3C//DTD SVG 1.1//EN"
 "http://www.w3.org/Graphics/SVG/1.1/DTD/svg11.dtd">
<!-- Generated by graphviz version 2.43.0 (0)
 -->
<!-- Title: G Pages: 1 -->
<svg width="1070pt" height="216pt"
 viewBox="0.00 0.00 1070.00 215.67" xmlns="http://www.w3.org/2000/svg" xmlns:xlink="http://www.w3.org/1999/xlink">
<g id="graph0" class="graph" transform="scale(1 1) rotate(0) translate(4 211.67)">
<title>G</title>
<polygon fill="white" stroke="transparent" points="-4,4 -4,-211.67 1066,-211.67 1066,4 -4,4"/>
<!-- node0 -->
<g id="node1" class="node">
<title>node0</title>
<polygon fill="lightblue" stroke="lightblue" points="0,-0.5 0,-170.5 86,-170.5 86,-0.5 0,-0.5"/>
<text text-anchor="middle" x="43" y="-156.9" font-family="Times,serif" font-size="12.00">phys_index:</text>
<text text-anchor="middle" x="43" y="-143.9" font-family="Times,serif" font-size="12.00">0</text>
<polyline fill="none" stroke="lightblue" points="0,-136.5 86,-136.5 "/>
<text text-anchor="middle" x="43" y="-122.9" font-family="Times,serif" font-size="12.00">log_index:</text>
<text text-anchor="middle" x="43" y="-109.9" font-family="Times,serif" font-size="12.00">0</text>
<polyline fill="none" stroke="lightblue" points="0,-102.5 86,-102.5 "/>
<text text-anchor="middle" x="43" y="-88.9" font-family="Times,serif" font-size="12.00">value:</text>
<text text-anchor="middle" x="43" y="-75.9" font-family="Times,serif" font-size="12.00">0</text>
<polyline fill="none" stroke="lightblue" points="0,-68.5 86,-68.5 "/>
<text text-anchor="middle" x="43" y="-54.9" font-family="Times,serif" font-size="12.00">prev:</text>
<text text-anchor="middle" x="43" y="-41.9" font-family="Times,serif" font-size="12.00">0</text>
<polyline fill="none" stroke="lightblue" points="0,-34.5 86,-34.5 "/>
<text text-anchor="middle" x="43" y="-20.9" font-family="Times,serif" font-size="12.00">next:</text>
<text text-anchor="middle" x="43" y="-7.9" font-family="Times,serif" font-size="12.00">0</text>
</g>
<!-- node4 -->
<g id="node9" class="node">
<title>node4</title>
<polygon fill="none" stroke="black" points="122,-0.5 122,-170.5 208,-170.5 208,-0.5 122,-0.5"/>
<text text-anchor="middle" x="165" y="-156.9" font-family="Times,serif" font-size="12.00">phys_index:</text>
<text text-anchor="middle" x="165" y="-143.9" font-family="Times,serif" font-size="12.00">4</text>
<polyline fill="none" stroke="black" points="122,-136.5 208,-136.5 "/>
<text text-anchor="middle" x="165" y="-122.9" font-family="Times,serif" font-size="12.00">log_index:</text>
<text text-anchor="middle" x="165" y="-109.9" font-family="Times,serif" font-size="12.00">8</text>
<polyline fill="none" stroke="black" points="122,-102.5 208,-102.5 "/>
<text text-anchor="middle" x="165" y="-88.9" font-family="Times,serif" font-size="12.00">value:</text>
<text text-anchor="middle" x="165" y="-75.9" font-family="Times,serif" font-size="12.00">four</text>
<polyline fill="none" stroke="black" points="122,-68.5 208,-68.5 "/>
<text text-anchor="middle" x="165" y="-54.9" font-family="Times,serif" font-size="12.00">prev:</text>
<text text-anchor="middle" x="165" y="-41.9" font-family="Times,serif" font-size="12.00">3</text>
<polyline fill="none" stroke="black" points="122,-34.5 208,-34.5 "/>
<text text-anchor="middle" x="165" y="-20.9" font-family="Times,serif" font-size="12.00">next:</text>
<text text-anchor="middle" x="165" y="-7.9" font-family="Times,serif" font-size="12.00">0</text>
</g>
<!-- node0&#45;&gt;node4 -->
<g id="edge17" class="edge">
<title>node0:prev&#45;&gt;node4:prev</title>
<path fill="none" stroke="black" d="M86,-51.5C98,-51.5 103.25,-51.5 111.88,-51.5"/>
<polygon fill="black" stroke="black" points="112,-55 122,-51.5 112,-48 112,-55"/>
</g>
<!-- node8 -->
<g id="node2" class="node">
<title>node8</title>
<polygon fill="none" stroke="black" points="976,-0.5 976,-170.5 1062,-170.5 1062,-0.5 976,-0.5"/>
<text text-anchor="middle" x="1019" y="-156.9" font-family="Times,serif" font-size="12.00">phys_index:</text>
<text text-anchor="middle" x="1019" y="-143.9" font-family="Times,serif" font-size="12.00">8</text>
<polyline fill="none" stroke="black" points="976,-136.5 1062,-136.5 "/>
<text text-anchor="middle" x="1019" y="-122.9" font-family="Times,serif" font-size="12.00">log_index:</text>
<text text-anchor="middle" x="1019" y="-109.9" font-family="Times,serif" font-size="12.00">1</text>
<polyline fill="none" stroke="black" points="976,-102.5 1062,-102.5 "/>
<text text-anchor="middle" x="1019" y="-88.9" font-family="Times,serif" font-size="12.00">value:</text>
<text text-anchor="middle" x="1019" y="-75.9" font-family="Times,serif" font-size="12.00">&#45;3</text>
<polyline fill="none" stroke="black" points="976,-68.5 1062,-68.5 "/>
<text text-anchor="middle" x="1019" y="-54.9" font-family="Times,serif" font-size="12.00">prev:</text>
<text text-anchor="middle" x="1019" y="-41.9" font-family="Times,serif" font-size="12.00">0</text>
<polyline fill="none" stroke="black" points="976,-34.5 1062,-34.5 "/>
<text text-anchor="middle" x="1019" y="-20.9" font-family="Times,serif" font-size="12.00">next:</text>
<text text-anchor="middle" x="1019" y="-7.9" font-family="Times,serif" font-size="12.00">7</text>
</g>
<!-- node8&#45;&gt;node0 -->
<g id="edge1" class="edge">
<title>node8:prev&#45;&gt;node0:prev</title>
<path fill="none" stroke="black" d="M976,-51.5C916.9,-51.5 984.86,-141.02 940,-179.5 884.27,-227.31 849.43,-199.5 776,-199.5 286,-199.5 286,-199.5 286,-199.5 212.57,-199.5 177.73,-227.31 122,-179.5 80.12,-143.58 136.57,-63.16 96.16,-52.64"/>
<polygon fill="black" stroke="black" points="96.33,-49.14 86,-51.5 95.55,-56.1 96.33,-49.14"/>
</g>
<!-- node7 -->
<g id="node3" class="node">
<title>node7</title>
<polygon fill="none" stroke="black" points="854,-0.5 854,-170.5 940,-170.5 940,-0.5 854,-0.5"/>
<text text-anchor="middle" x="897" y="-156.9" font-family="Times,serif" font-size="12.00">phys_index:</text>
<text text-anchor="middle" x="897" y="-143.9" font-family="Times,serif" font-size="12.00">7</text>
<polyline fill="none" stroke="black" points="854,-136.5 940,-136.5 "/>
<text text-anchor="middle" x="897" y="-122.9" font-family="Times,serif" font-size="12.00">log_index:</text>
<text text-anchor="middle" x="897" y="-109.9" font-family="Times,serif" font-size="12.00">2</text>
<polyline fill="none" stroke="black" points="854,-102.5 940,-102.5 "/>
<text text-anchor="middle" x="897" y="-88.9" font-family="Times,serif" font-size="12.00">value:</text>
<text text-anchor="middle" x="897" y="-75.9" font-family="Times,serif" font-size="12.00">&#45;2</text>
<polyline fill="none" stroke="black" points="854,-68.5 940,-68.5 "/>
<text text-anchor="middle" x="897" y="-54.9" font-family="Times,serif" font-size="12.00">prev:</text>
<text text-anchor="middle" x="897" y="-41.9" font-family="Times,serif" font-size="12.00">8</text>
<polyline fill="none" stroke="black" points="854,-34.5 940,-34.5 "/>
<text text-anchor="middle" x="897" y="-20.9" font-family="Times,serif" font-size="12.00">next:</text>
<text text-anchor="middle" x="897" y="-7.9" font-family="Times,serif" font-size="12.00">6</text>
</g>
<!-- node8&#45;&gt;node7 -->
<g id="edge2" class="edge">
<title>node8:next&#45;&gt;node7:next</title>
<path fill="none" stroke="black" d="M976,-17.5C964,-17.5 958.75,-17.5 950.12,-17.5"/>
<polygon fill="black" stroke="black" points="950,-14 940,-17.5 950,-21 950,-14"/>
</g>
<!-- node7&#45;&gt;node8 -->
<g id="edge3" class="edge">
<title>node7:prev&#45;&gt;node8:prev</title>
<path fill="none" stroke="black" d="M940,-51.5C952,-51.5 957.25,-51.5 965.88,-51.5"/>
<polygon fill="black" stroke="black" points="966,-55 976,-51.5 966,-48 966,-55"/>
</g>
<!-- node6 -->
<g id="node4" class="node">
<title>node6</title>
<polygon fill="none" stroke="black" points="732,-0.5 732,-170.5 818,-170.5 818,-0.5 732,-0.5"/>
<text text-anchor="middle" x="775" y="-156.9" font-family="Times,serif" font-size="12.00">phys_index:</text>
<text text-anchor="middle" x="775" y="-143.9" font-family="Times,serif" font-size="12.00">6</text>
<polyline fill="none" stroke="black" points="732,-136.5 818,-136.5 "/>
<text text-anchor="middle" x="775" y="-122.9" font-family="Times,serif" font-size="12.00">log_index:</text>
<text text-anchor="middle" x="775" y="-109.9" font-family="Times,serif" font-size="12.00">3</text>
<polyline fill="none" stroke="black" points="732,-102.5 818,-102.5 "/>
<text text-anchor="middle" x="775" y="-88.9" font-family="Times,serif" font-size="12.00">value:</text>
<text text-anchor="middle" x="775" y="-75.9" font-family="Times,serif" font-size="12.00">&#45;1</text>
<polyline fill="none" stroke="black" points="732,-68.5 818,-68.5 "/>
<text text-anchor="middle" x="775" y="-54.9" font-family="Times,serif" font-size="12.00">prev:</text>
<text text-anchor="middle" x="775" y="-41.9" font-family="Times,serif" font-size="12.00">7</text>
<polyline fill="none" stroke="black" points="732,-34.5 818,-34.5 "/>
<text text-anchor="middle" x="775" y="-20.9" font-family="Times,serif" font-size="12.00">next:</text>
<text text-anchor="middle" x="775" y="-7.9" font-family="Times,serif" font-size="12.00">5</text>
</g>
<!-- node7&#45;&gt;node6 -->
<g id="edge4" class="edge">
<title>node7:next&#45;&gt;node6:next</title>
<path fill="none" stroke="black" d="M854,-17.5C842,-17.5 836.75,-17.5 828.12,-17.5"/>
<polygon fill="black" stroke="black" points="828,-14 818,-17.5 828,-21 828,-14"/>
</g>
<!-- node6&#45;&gt;node7 -->
<g id="edge5" class="edge">
<title>node6:prev&#45;&gt;node7:prev</title>
<path fill="none" stroke="black" d="M818,-51.5C830,-51.5 835.25,-51.5 843.88,-51.5"/>
<polygon fill="black" stroke="black" points="844,-55 854,-51.5 844,-48 844,-55"/>
</g>
<!-- node5 -->
<g id="node5" class="node">
<title>node5</title>
<polygon fill="none" stroke="black" points="610,-0.5 610,-170.5 696,-170.5 696,-0.5 610,-0.5"/>
<text text-anchor="middle" x="653" y="-156.9" font-family="Times,serif" font-size="12.00">phys_index:</text>
<text text-anchor="middle" x="653" y="-143.9" font-family="Times,serif" font-size="12.00">5</text>
<polyline fill="none" stroke="black" points="610,-136.5 696,-136.5 "/>
<text text-anchor="middle" x="653" y="-122.9" font-family="Times,serif" font-size="12.00">log_index:</text>
<text text-anchor="middle" x="653" y="-109.9" font-family="Times,serif" font-size="12.00">4</text>
<polyline fill="none" stroke="black" points="610,-102.5 696,-102.5 "/>
<text text-anchor="middle" x="653" y="-88.9" font-family="Times,serif" font-size="12.00">value:</text>
<text text-anchor="middle" x="653" y="-75.9" font-family="Times,serif" font-size="12.00">zero</text>
<polyline fill="none" stroke="black" points="610,-68.5 696,-68.5 "/>
<text text-anchor="middle" x="653" y="-54.9" font-family="Times,serif" font-size="12.00">prev:</text>
<text text-anchor="middle" x="653" y="-41.9" font-family="Times,serif" font-size="12.00">6</text>
<polyline fill="none" stroke="black" points="610,-34.5 696,-34.5 "/>
<text text-anchor="middle" x="653" y="-20.9" font-family="Times,serif" font-size="12.00">next:</text>
<text text-anchor="middle" x="653" y="-7.9" font-family="Times,serif" font-size="12.00">1</text>
</g>
<!-- node6&#45;&gt;node5 -->
<g id="edge6" class="edge">
<title>node6:next&#45;&gt;node5:next</title>
<path fill="none" stroke="black" d="M732,-17.5C720,-17.5 714.75,-17.5 706.12,-17.5"/>
<polygon fill="black" stroke="black" points="706,-14 696,-17.5 706,-21 706,-14"/>
</g>
<!-- node5&#45;&gt;node6 -->
<g id="edge7" class="edge">
<title>node5:prev&#45;&gt;node6:prev</title>
<path fill="none" stroke="black" d="M696,-51.5C708,-51.5 713.25,-51.5 721.88,-51.5"/>
<polygon fill="black" stroke="black" points="722,-55 732,-51.5 722,-48 722,-55"/>
</g>
<!-- node1 -->
<g id="node6" class="node">
<title>node1</title>
<polygon fill="none" stroke="black" points="488,-0.5 488,-170.5 574,-170.5 574,-0.5 488,-0.5"/>
<text text-anchor="middle" x="531" y="-156.9" font-family="Times,serif" font-size="12.00">phys_index:</text>
<text text-anchor="middle" x="531" y="-143.9" font-family="Times,serif" font-size="12.00">1</text>
<polyline fill="none" stroke="black" points="488,-136.5 574,-136.5 "/>
<text text-anchor="middle" x="531" y="-122.9" font-family="Times,serif" font-size="12.00">log_index:</text>
<text text-anchor="middle" x="531" y="-109.9" font-family="Times,serif" font-size="12.00">5</text>
<polyline fill="none" stroke="black" points="488,-102.5 574,-102.5 "/>
<text text-anchor="middle" x="531" y="-88.9" font-family="Times,serif" font-size="12.00">value:</text>
<text text-anchor="middle" x="531" y="-75.9" font-family="Times,serif" font-size="12.00">one</text>
<polyline fill="none" stroke="black" points="488,-68.5 574,-68.5 "/>
<text text-anchor="middle" x="531" y="-54.9" font-family="Times,serif" font-size="12.00">prev:</text>
<text text-anchor="middle" x="531" y="-41.9" font-family="Times,serif" font-size="12.00">5</text>
<polyline fill="none" stroke="black" points="488,-34.5 574,-34.5 "/>
<text text-anchor="middle" x="531" y="-20.9" font-family="Times,serif" font-size="12.00">next:</text>
<text text-anchor="middle" x="531" y="-7.9" font-family="Times,serif" font-size="12.00">2</text>
</g>
<!-- node5&#45;&gt;node1 -->
<g id="edge8" class="edge">
<title>node5:next&#45;&gt;node1:next</title>
<path fill="none" stroke="black" d="M610,-17.5C598,-17.5 592.75,-17.5 584.12,-17.5"/>
<polygon fill="black" stroke="black" points="584,-14 574,-17.5 584,-21 584,-14"/>
</g>
<!-- node1&#45;&gt;node5 -->
<g id="edge9" class="edge">
<title>node1:prev&#45;&gt;node5:prev</title>
<path fill="none" stroke="black" d="M574,-51.5C586,-51.5 591.25,-51.5 599.88,-51.5"/>
<polygon fill="black" stroke="black" points="600,-55 610,-51.5 600,-48 600,-55"/>
</g>
<!-- node2 -->
<g id="node7" class="node">
<title>node2</title>
<polygon fill="none" stroke="black" points="366,-0.5 366,-170.5 452,-170.5 452,-0.5 366,-0.5"/>
<text text-anchor="middle" x="409" y="-156.9" font-family="Times,serif" font-size="12.00">phys_index:</text>
<text text-anchor="middle" x="409" y="-143.9" font-family="Times,serif" font-size="12.00">2</text>
<polyline fill="none" stroke="black" points="366,-136.5 452,-136.5 "/>
<text text-anchor="middle" x="409" y="-122.9" font-family="Times,serif" font-size="12.00">log_index:</text>
<text text-anchor="middle" x="409" y="-109.9" font-family="Times,serif" font-size="12.00">6</text>
<polyline fill="none" stroke="black" points="366,-102.5 452,-102.5 "/>
<text text-anchor="middle" x="409" y="-88.9" font-family="Times,serif" font-size="12.00">value:</text>
<text text-anchor="middle" x="409" y="-75.9" font-family="Times,serif" font-size="12.00">two</text>
<polyline fill="none" stroke="black" points="366,-68.5 452,-68.5 "/>
<text text-anchor="middle" x="409" y="-54.9" font-family="Times,serif" font-size="12.00">prev:</text>
<text text-anchor="middle" x="409" y="-41.9" font-family="Times,serif" font-size="12.00">1</text>
<polyline fill="none" stroke="black" points="366,-34.5 452,-34.5 "/>
<text text-anchor="middle" x="409" y="-20.9" font-family="Times,serif" font-size="12.00">next:</text>
<text text-anchor="middle" x="409" y="-7.9" font-family="Times,serif" font-size="12.00">3</text>
</g>
<!-- node1&#45;&gt;node2 -->
<g id="edge10" class="edge">
<title>node1:next&#45;&gt;node2:next</title>
<path fill="none" stroke="black" d="M488,-17.5C476,-17.5 470.75,-17.5 462.12,-17.5"/>
<polygon fill="black" stroke="black" points="462,-14 452,-17.5 462,-21 462,-14"/>
</g>
<!-- node2&#45;&gt;node1 -->
<g id="edge11" class="edge">
<title>node2:prev&#45;&gt;node1:prev</title>
<path fill="none" stroke="black" d="M452,-51.5C464,-51.5 469.25,-51.5 477.88,-51.5"/>
<polygon fill="black" stroke="black" points="478,-55 488,-51.5 478,-48 478,-55"/>
</g>
<!-- node3 -->
<g id="node8" class="node">
<title>node3</title>
<polygon fill="none" stroke="black" points="244,-0.5 244,-170.5 330,-170.5 330,-0.5 244,-0.5"/>
<text text-anchor="middle" x="287" y="-156.9" font-family="Times,serif" font-size="12.00">phys_index:</text>
<text text-anchor="middle" x="287" y="-143.9" font-family="Times,serif" font-size="12.00">3</text>
<polyline fill="none" stroke="black" points="244,-136.5 330,-136.5 "/>
<text text-anchor="middle" x="287" y="-122.9" font-family="Times,serif" font-size="12.00">log_index:</text>
<text text-anchor="middle" x="287" y="-109.9" font-family="Times,serif" font-size="12.00">7</text>
<polyline fill="none" stroke="black" points="244,-102.5 330,-102.5 "/>
<text text-anchor="middle" x="287" y="-88.9" font-family="Times,serif" font-size="12.00">value:</text>
<text text-anchor="middle" x="287" y="-75.9" font-family="Times,serif" font-size="12.00">three</text>
<polyline fill="none" stroke="black" points="244,-68.5 330,-68.5 "/>
<text text-anchor="middle" x="287" y="-54.9" font-family="Times,serif" font-size="12.00">prev:</text>
<text text-anchor="middle" x="287" y="-41.9" font-family="Times,serif" font-size="12.00">2</text>
<polyline fill="none" stroke="black" points="244,-34.5 330,-34.5 "/>
<text text-anchor="middle" x="287" y="-20.9" font-family="Times,serif" font-size="12.00">next:</text>
<text text-anchor="middle" x="287" y="-7.9" font-family="Times,serif" font-size="12.00">4</text>
</g>
<!-- node2&#45;&gt;node3 -->
<g id="edge12" class="edge">
<title>node2:next&#45;&gt;node3:next</title>
<path fill="none" stroke="black" d="M366,-17.5C354,-17.5 348.75,-17.5 340.12,-17.5"/>
<polygon fill="black" stroke="black" points="340,-14 330,-17.5 340,-21 340,-14"/>
</g>
<!-- node3&#45;&gt;node2 -->
<g id="edge13" class="edge">
<title>node3:prev&#45;&gt;node2:prev</title>
<path fill="none" stroke="black" d="M330,-51.5C342,-51.5 347.25,-51.5 355.88,-51.5"/>
<polygon fill="black" stroke="black" points="356,-55 366,-51.5 356,-48 356,-55"/>
</g>
<!-- node3&#45;&gt;node4 -->
<g id="edge14" class="edge">
<title>node3:next&#45;&gt;node4:next</title>
<path fill="none" stroke="black" d="M244,-17.5C232,-17.5 226.75,-17.5 218.12,-17.5"/>
<polygon fill="black" stroke="black" points="218,-14 208,-17.5 218,-21 218,-14"/>
</g>
<!-- node4&#45;&gt;node0 -->
<g id="edge16" class="edge">
<title>node4:next&#45;&gt;node0:next</title>
<path fill="none" stroke="black" d="M122,-17.5C110,-17.5 104.75,-17.5 96.12,-17.5"/>
<polygon fill="black" stroke="black" points="96,-14 86,-17.5 96,-21 96,-14"/>
</g>
<!-- node4&#45;&gt;node3 -->
<g id="edge15" class="edge">
<title>node4:prev&#45;&gt;node3:prev</title>
<path fill="none" stroke="black" d="M208,-51.5C220,-51.5 225.25,-51.5 233.88,-51.5"/>
<polygon fill="black" stroke="black" points="234,-55 244,-51.5 234,-48 234,-55"/>
</g>
</g>
</svg>
